<svg width="15" height="15" viewBox="0 0 15 15" xmlns="http://www.w3.org/2000/svg">
<path d="M11.295 8.32303C9.9 8.32303 8.73 9.32917 8.43 10.6682C7.7175 10.358 7.065 10.4412 6.57 10.6606C6.2625 9.31404 5.0925 8.32303 3.705 8.32303C2.0775 8.32303 0.75 9.67716 0.75 11.349C0.75 13.0209 2.0775 14.375 3.705 14.375C5.25 14.375 6.51 13.1495 6.63 11.5911C6.885 11.4095 7.5525 11.0691 8.37 11.6062C8.505 13.157 9.75 14.375 11.295 14.375C12.9225 14.375 14.25 13.0209 14.25 11.349C14.25 9.67716 12.9225 8.32303 11.295 8.32303ZM3.705 13.5126C2.535 13.5126 1.5975 12.5443 1.5975 11.349C1.5975 10.1537 2.5425 9.18543 3.705 9.18543C4.875 9.18543 5.8125 10.1537 5.8125 11.349C5.8125 12.5443 4.875 13.5126 3.705 13.5126ZM11.295 13.5126C10.125 13.5126 9.1875 12.5443 9.1875 11.349C9.1875 10.1537 10.125 9.18543 11.295 9.18543C12.465 9.18543 13.41 10.1537 13.41 11.349C13.41 12.5443 12.4575 13.5126 11.295 13.5126ZM15 6.43179H0V7.56653H15V6.43179ZM10.1475 0.478158C9.9825 0.107475 9.5625 -0.0892142 9.165 0.0393903L7.5 0.599198L5.8275 0.0393903L5.79 0.0318253C5.3925 -0.0816492 4.9725 0.13017 4.8225 0.515983L3 5.29704H12L10.17 0.515983L10.1475 0.478158Z" fill="currentColor"/>
</svg>
