<?xml version="1.0" encoding="UTF-8"?><svg id="a" xmlns="http://www.w3.org/2000/svg" xmlns:xlink="http://www.w3.org/1999/xlink" viewBox="0 0 200 200"><defs><pattern id="b" x="0" y="0" width="200" height="200" patternUnits="userSpaceOnUse" viewBox="0 0 200 200"><rect width="200" height="200" fill="none" stroke-width="0"/><rect width="200" height="200" fill="#c7e6de" stroke-width="0"/><path d="m45.14,50.17H12.45c-2.51,0-4.55-2.04-4.55-4.55h0c0-2.51,2.04-4.55,4.55-4.55h32.68c2.51,0,4.55,2.04,4.55,4.55h0c0,2.51-2.04,4.55-4.55,4.55Z" fill="#bcd9d2" stroke-width="0"/><polygon points="15.18 42.16 28.79 7.12 42.41 42.16 15.18 42.16" fill="#66afb8" stroke-width="0"/><line x1="28.79" y1="20.5" x2="28.79" y2="45.62" fill="none" stroke="#4d838a" stroke-linecap="round" stroke-miterlimit="10" stroke-width="3"/><path d="m129.22,42.99h-25.33c-1.95,0-3.52-1.58-3.52-3.52h0c0-1.95,1.58-3.52,3.52-3.52h25.33c1.95,0,3.52,1.58,3.52,3.52h0c0,1.95-1.58,3.52-3.52,3.52Z" fill="#bcd9d2" stroke-width="0"/><polygon points="106 37.55 116.55 10.39 127.11 37.55 106 37.55" fill="#66afb8" stroke-width="0"/><line x1="116.55" y1="21.75" x2="116.55" y2="40.38" fill="none" stroke="#4d838a" stroke-linecap="round" stroke-miterlimit="10" stroke-width="2.4"/><path d="m99.91,193.28h-25.33c-1.95,0-3.52-1.58-3.52-3.52h0c0-1.95,1.58-3.52,3.52-3.52h25.33c1.95,0,3.52,1.58,3.52,3.52h0c0,1.95-1.58,3.52-3.52,3.52Z" fill="#bcd9d2" stroke-width="0"/><polygon points="76.69 187.13 87.25 159.96 97.8 187.13 76.69 187.13" fill="#66afb8" stroke-width="0"/><line x1="87.25" y1="170.25" x2="87.25" y2="189.75" fill="none" stroke="#4d838a" stroke-linecap="round" stroke-miterlimit="10" stroke-width="2"/><path d="m47.1,117.3h-25.33c-1.95,0-3.52-1.58-3.52-3.52h0c0-1.95,1.58-3.52,3.52-3.52h25.33c1.95,0,3.52,1.58,3.52,3.52h0c0,1.95-1.58,3.52-3.52,3.52Z" fill="#bcd9d2" stroke-width="0"/><polygon points="23.88 111.49 34.43 84.32 44.99 111.49 23.88 111.49" fill="#66afb8" stroke-width="0"/><line x1="34.43" y1="94.5" x2="34.43" y2="114.38" fill="none" stroke="#4d838a" stroke-linecap="round" stroke-miterlimit="10" stroke-width="2.4"/><path d="m193.36,189.5h-21.5c-1.65,0-2.99-1.34-2.99-2.99h0c0-1.65,1.34-2.99,2.99-2.99h21.5c1.65,0,2.99,1.34,2.99,2.99h0c0,1.65-1.34,2.99-2.99,2.99Z" fill="#bcd9d2" stroke-width="0"/><polygon points="173.66 185.12 182.61 162.07 191.57 185.12 173.66 185.12" fill="#66afb8" stroke-width="0"/><line x1="182.61" y1="172.59" x2="182.61" y2="187" fill="none" stroke="#4d838a" stroke-linecap="round" stroke-miterlimit="10" stroke-width="2"/><path d="m186.69,85.33h-19.95c-1.53,0-2.78-1.24-2.78-2.78h0c0-1.53,1.24-2.78,2.78-2.78h19.95c1.53,0,2.78,1.24,2.78,2.78h0c0,1.53-1.24,2.78-2.78,2.78Z" fill="#bcd9d2" stroke-width="0"/><polygon points="168.41 80.78 176.72 59.39 185.02 80.78 168.41 80.78" fill="#2f998f" stroke-width="0"/><line x1="176.72" y1="67.12" x2="176.72" y2="82.94" fill="none" stroke="#4d838a" stroke-linecap="round" stroke-miterlimit="10" stroke-width="2.4"/><path d="m182.27,49.51h-25.33c-1.95,0-3.52-1.58-3.52-3.52h0c0-1.95,1.58-3.52,3.52-3.52h25.33c1.95,0,3.52,1.58,3.52,3.52h0c0,1.95-1.58,3.52-3.52,3.52Z" fill="#bcd9d2" stroke-width="0"/><polygon points="159.05 43.99 169.6 16.83 180.16 43.99 159.05 43.99" fill="#66afb8" stroke-width="0"/><line x1="169.6" y1="27.67" x2="169.6" y2="46.5" fill="none" stroke="#4d838a" stroke-linecap="round" stroke-miterlimit="10" stroke-width="2.4"/><path d="m91.04,144.32h-28.7c-2.21,0-3.99-1.79-3.99-3.99h0c0-2.21,1.79-3.99,3.99-3.99h28.7c2.21,0,3.99,1.79,3.99,3.99h0c0,2.21-1.79,3.99-3.99,3.99Z" fill="#bcd9d2" stroke-width="0"/><polygon points="64.74 138.58 76.69 107.8 88.65 138.58 64.74 138.58" fill="#66afb8" stroke-width="0"/><line x1="76.69" y1="121.84" x2="76.69" y2="141.34" fill="none" stroke="#4d838a" stroke-linecap="round" stroke-miterlimit="10" stroke-width="2.4"/><path d="m84.1,79.55h-32.68c-2.51,0-4.55-2.04-4.55-4.55h0c0-2.51,2.04-4.55,4.55-4.55h32.68c2.51,0,4.55,2.04,4.55,4.55h0c0,2.51-2.04,4.55-4.55,4.55Z" fill="#bcd9d2" stroke-width="0"/><polygon points="54.15 71.52 67.76 36.48 81.38 71.52 54.15 71.52" fill="#2f998f" stroke-width="0"/><polygon points="56.35 59.4 67.76 30.04 79.17 59.4 56.35 59.4" fill="#2f998f" stroke-width="0"/><line x1="67.76" y1="41.13" x2="67.76" y2="75" fill="none" stroke="#4d838a" stroke-linecap="round" stroke-miterlimit="10" stroke-width="3"/><path d="m138.53,107.05h-32.68c-2.51,0-4.55-2.04-4.55-4.55h0c0-2.51,2.04-4.55,4.55-4.55h32.68c2.51,0,4.55,2.04,4.55,4.55h0c0,2.51-2.04,4.55-4.55,4.55Z" fill="#bcd9d2" stroke-width="0"/><polygon points="108.57 99.35 122.19 64.3 135.8 99.35 108.57 99.35" fill="#66afb8" stroke-width="0"/><polygon points="110.78 87.22 122.19 57.86 133.6 87.22 110.78 87.22" fill="#66afb8" stroke-width="0"/><line x1="122.19" y1="70.09" x2="122.19" y2="102.5" fill="none" stroke="#4d838a" stroke-linecap="round" stroke-miterlimit="10" stroke-width="3"/><path d="m45.14,183.62H12.45c-2.51,0-4.55-2.04-4.55-4.55h0c0-2.51,2.04-4.55,4.55-4.55h32.68c2.51,0,4.55,2.04,4.55,4.55h0c0,2.51-2.04,4.55-4.55,4.55Z" fill="#bcd9d2" stroke-width="0"/><polygon points="15.18 176.39 28.79 141.34 42.41 176.39 15.18 176.39" fill="#2f998f" stroke-width="0"/><polygon points="17.39 164.26 28.79 134.9 40.2 164.26 17.39 164.26" fill="#2f998f" stroke-width="0"/><line x1="28.79" y1="145" x2="28.79" y2="179.5" fill="none" stroke="#4d838a" stroke-linecap="round" stroke-miterlimit="10" stroke-width="2.42"/><path d="m184.75,140.88h-32.68c-2.51,0-4.55-2.04-4.55-4.55h0c0-2.51,2.04-4.55,4.55-4.55h32.68c2.51,0,4.55,2.04,4.55,4.55h0c0,2.51-2.04,4.55-4.55,4.55Z" fill="#bcd9d2" stroke-width="0"/><polygon points="154.79 133.72 168.41 98.67 182.02 133.72 154.79 133.72" fill="#66afb8" stroke-width="0"/><polygon points="157 121.59 168.41 92.23 179.81 121.59 157 121.59" fill="#66afb8" stroke-width="0"/><line x1="168.41" y1="105" x2="168.41" y2="137.67" fill="none" stroke="#4d838a" stroke-linecap="round" stroke-miterlimit="10" stroke-width="3"/><path d="m145.41,166.42h-25.33c-1.95,0-3.52-1.58-3.52-3.52h0c0-1.95,1.58-3.52,3.52-3.52h25.33c1.95,0,3.52,1.58,3.52,3.52h0c0,1.95-1.58,3.52-3.52,3.52Z" fill="#bcd9d2" stroke-width="0"/><polygon points="122.19 161.07 132.74 133.9 143.3 161.07 122.19 161.07" fill="#2f998f" stroke-width="0"/><line x1="132.74" y1="145.25" x2="132.74" y2="163.67" fill="none" stroke="#4d838a" stroke-linecap="round" stroke-miterlimit="10" stroke-width="2.4"/><circle cx="13.56" cy="12.94" r="2.56" fill="#fff" stroke-width="0"/><circle cx="147.52" cy="15.5" r="2.56" fill="#fff" stroke-width="0"/><circle cx="83.17" cy="23.25" r="4" fill="#fff" stroke-width="0"/><circle cx="118.19" cy="123.19" r="4" fill="#fff" stroke-width="0"/><circle cx="39.75" cy="58.75" r="2.5" fill="#fff" stroke-width="0"/><circle cx="122.19" cy="184.26" r="2.5" fill="#fff" stroke-width="0"/><circle cx="185.8" cy="102.5" r="2.5" fill="#fff" stroke-width="0"/><circle cx="58.35" cy="100" r="2.5" fill="#fff" stroke-width="0"/><circle cx="63.35" cy="167.75" r="2.5" fill="#fff" stroke-width="0"/><circle cx="143.08" cy="54" r="2.5" fill="#fff" stroke-width="0"/><circle cx="161.55" cy="156.36" r="2.5" fill="#fff" stroke-width="0"/><circle cx="105" cy="149.99" r="2.5" fill="#fff" stroke-width="0"/><circle cx="153.41" cy="67.83" r="1.56" fill="#fff" stroke-width="0"/><circle cx="12.05" cy="191.31" r="1.56" fill="#fff" stroke-width="0"/><circle cx="145.58" cy="181.76" r="1.56" fill="#fff" stroke-width="0"/><circle cx="188.3" cy="152.49" r="1.56" fill="#fff" stroke-width="0"/><circle cx="183.3" cy="15.5" r="1.56" fill="#fff" stroke-width="0"/><circle cx="60.85" cy="12.94" r="1.56" fill="#fff" stroke-width="0"/><circle cx="23.88" cy="69.39" r="1.56" fill="#fff" stroke-width="0"/><circle cx="15.18" cy="127.19" r="1.56" fill="#fff" stroke-width="0"/><circle cx="100.36" cy="57.86" r="1.56" fill="#fff" stroke-width="0"/><circle cx="83.17" cy="88.78" r="1.56" fill="#fff" stroke-width="0"/></pattern></defs><rect width="200" height="200" fill="url(#b)" stroke-width="0"/></svg>