<svg xmlns="http://www.w3.org/2000/svg" width="127" height="26" fill="none"><mask id="a" width="127" height="26" x="0" y="0" fill="#000" maskUnits="userSpaceOnUse"><path fill="#fff" d="M0 0h127v26H0z"/><path d="M16.224 2.304q.288.384.352.896 0 .192-.032.384 0 .16-.032.32-.032.353-.416.672-.224.16-.576.32a2.4 2.4 0 0 1-.416.096q-.192 0-.448.032a1.3 1.3 0 0 1-.416.064h-1.888l-6.688.032v.096l-.032 5.216h.544q.32 0 .768-.032h2.272q1.025 0 2.24.032h.192q.353 0 .704.032h.768q.353.032.704.096.353.032.704.16.576.192.832.608.352.415.352.864v.384q0 .16-.064.352-.032.256-.416.64-.255.224-.608.288a4 4 0 0 1-.384.128q-.192.032-.416.064l-.448.064h-1.92l-5.888.032-.096 7.424v.256q0 .16-.032.32 0 .127-.032.288a6 6 0 0 0-.128.352 2 2 0 0 1-.096.32q-.225.448-.416.608-.353.256-.864.352a2.4 2.4 0 0 1-1.632-.192 3 3 0 0 1-.32-.224 1.7 1.7 0 0 1-.224-.384.5.5 0 0 1-.064-.192l-.096-.192a1 1 0 0 1-.128-.32 11 11 0 0 0-.064-.352q0-.16-.032-.32 0-.16-.032-.32a2 2 0 0 1 0-.512v-.512l.032-2.496.032-4.608q.032-1.024.032-2.08V9.184a75 75 0 0 1-.032-2.048q.031-.896.096-1.952v-.16q.032-.352.032-.64 0-.32.064-.64.065-.704.32-1.248.225-.544.64-.768.48-.288 1.024-.288.256 0 .416.032V1.44h2.3040000000000003a13 13 0 0 1 1.024-.032q2.56-.032 5.056 0h.16q.353.032.704.032.384 0 .768.032.353 0 .704.096.353.065.704.192.544.16.832.544m15.614 14.08-.128 2.144a9.4 9.4 0 0 1-.352 2.048 5.3 5.3 0 0 1-.832 1.792q-.543.8-1.568 1.28a6.5 6.5 0 0 1-1.92.608 9.5 9.5 0 0 1-2.048.16 7.7 7.7 0 0 1-1.984-.32 6.3 6.3 0 0 1-1.728-.736 3.9 3.9 0 0 1-1.248-1.248 7.4 7.4 0 0 1-.768-1.664 10.6 10.6 0 0 1-.352-1.856 29 29 0 0 1-.128-1.792 37 37 0 0 1 0-4.352v-.928q0-.544.064-1.056.096-.511.288-.928a1.3 1.3 0 0 1 .64-.672q.96-.512 1.76-.064.833.448.992 1.856a10 10 0 0 1 .064 1.632q0 .895.064 1.632.033 1.088.064 2.368.033 1.248.352 2.24.352.992 1.12 1.504.8.48 2.368.032.735-.225.96-1.12.256-.896.256-2.656 0-.768-.032-1.696a53 53 0 0 1-.032-1.824q0-.928.032-1.696.064-.8.192-1.216.16-.576.672-.864a2.2 2.2 0 0 1 1.088-.288q.576-.032 1.088.224t.704.832q.192.512.256 1.312.096.768.128 1.696.033.896 0 1.856 0 .928-.032 1.76m3.349-3.808q0-.735-.032-1.568 0-.832.288-1.504.255-.607.832-.864.608-.288 1.184-.128.576.096.896.352.32.255.448.608.16.32.192.768l.064.832q.32-.576.8-.928t.992-.576.96-.32q.48-.096.736-.096 1.215 0 2.4.544 1.216.512 2.016 1.472.449.576.672 1.216.255.608.352 1.28.128.672.16 1.376l.064 1.376q.16 2.048 0 4.064-.032.416-.032.96t-.096 1.088q-.064.511-.288.928-.192.384-.672.48-.672.16-1.12.064a1.3 1.3 0 0 1-.672-.288 1.4 1.4 0 0 1-.384-.576 6 6 0 0 1-.224-.8 22 22 0 0 1-.128-.8l-.064-.96q0-.48-.032-.928v-.864q0-.608-.032-1.344t0-1.376q0-1.504-.8-2.272-.768-.8-2.112-.672a3.18 3.18 0 0 0-1.792.832q-.768.672-.736 1.76v.768q0 .353-.032.704v3.9360000000000004q0 1.152-.288 1.888-.256.768-.864 1.056t-1.44-.16a1.7 1.7 0 0 1-.576-.512 4.5 4.5 0 0 1-.32-.736 5 5 0 0 1-.128-.768 56 56 0 0 0-.064-.768 36 36 0 0 1-.128-1.952v-6.592M65.818 2.304q.288.384.352.896 0 .192-.032.384 0 .16-.032.32-.032.353-.416.672-.225.16-.576.32a2.4 2.4 0 0 1-.416.096q-.192 0-.448.032a1.3 1.3 0 0 1-.416.064h-1.888l-6.688.032v.096l-.032 5.216h.544q.32 0 .768-.032h2.272q1.024 0 2.24.032h.192q.352 0 .704.032h.768q.352.032.704.096.352.032.704.16.576.192.832.608.352.415.352.864v.384q0 .16-.064.352-.032.256-.416.64-.256.224-.608.288a4 4 0 0 1-.384.128q-.192.032-.416.064l-.448.064h-1.92l-5.888.032-.096 7.424v.256q0 .16-.032.32 0 .127-.032.288a6 6 0 0 0-.128.352 2 2 0 0 1-.096.32q-.224.448-.416.608-.353.256-.864.352a2.4 2.4 0 0 1-1.632-.192 3 3 0 0 1-.32-.224 1.7 1.7 0 0 1-.224-.384.5.5 0 0 1-.064-.192l-.096-.192a1 1 0 0 1-.128-.32 12 12 0 0 0-.064-.352q0-.16-.032-.32 0-.16-.032-.32a2 2 0 0 1 0-.512v-.512l.032-2.496.032-4.608q.032-1.024.032-2.08V9.184a74 74 0 0 1-.032-2.048q.032-.896.096-1.952v-.16q.032-.352.032-.64 0-.32.064-.64.064-.704.32-1.248.224-.544.64-.768.48-.288 1.024-.288.256 0 .416.032V1.44h2.3040000000000003a13 13 0 0 1 1.024-.032q2.56-.032 5.056 0h.16q.352.032.704.032.384 0 .768.032.352 0 .704.096.352.065.704.192.543.16.832.544m4.519 8.224a7.5 7.5 0 0 1 2.016-.672 6.2 6.2 0 0 1 2.08-.096 6 6 0 0 1 2.015.544q.96.416 1.793 1.216a6.2 6.2 0 0 1 1.28 1.824 8.6 8.6 0 0 1 .64 2.208q.128.832.415 1.536.289.705.609 1.408.35.705.64 1.408.32.704.511 1.472.16.735-.127 1.44-.257.672-1.088.832-.48.096-.928-.064a3 3 0 0 1-.769-.512 7 7 0 0 1-.64-.736q-.255-.416-.48-.768-.735.96-1.6 1.504-.863.512-2.08.672-1.023.128-1.951.064t-1.984-.352q-1.377-.352-2.272-1.216a6.6 6.6 0 0 1-1.344-2.048 7.6 7.6 0 0 1-.48-2.528 9.3 9.3 0 0 1 .32-2.656q.447-1.727 1.344-2.816a6.2 6.2 0 0 1 2.08-1.664m.8 3.744q-.45.448-.704 1.056-.257.608-.32 1.28-.033.672.127 1.344t.513 1.184q.32.448 1.088.768.768.288 1.6.352.96.064 1.663-.512.737-.576 1.088-1.44a4.4 4.4 0 0 0 .353-1.888A3.7 3.7 0 0 0 76 14.56a2.3 2.3 0 0 0-1.025-.896 3 3 0 0 0-1.311-.288 3.6 3.6 0 0 0-1.409.224q-.671.224-1.12.672m25.766-2.592q.255.448.256.96.031.511-.224.96-.288.575-.832.8-.513.192-1.152.032a1.4 1.4 0 0 1-.512-.224 9 9 0 0 0-.48-.32 2.7 2.7 0 0 0-.544-.352q-.288-.16-.768-.224a4.4 4.4 0 0 0-1.056 0 3.6 3.6 0 0 0-.992.256q-.705.352-1.12 1.088-.417.704-.544 1.536a4.7 4.7 0 0 0 .032 1.632 3.14 3.14 0 0 0 .704 1.408q.383.448.992.736.64.288 1.216.352.543.064 1.088 0 .543-.096 1.056-.256.384-.16.864-.416.48-.288.928-.352.576 0 .896.32.32.288.448.736.128.416.032.896-.064.48-.352.832-.384.48-1.088.928-.705.416-1.344.608a6.1 6.1 0 0 1-1.728.288q-.929.032-1.76-.064a13 13 0 0 1-.8-.16 9 9 0 0 1-.8-.224q-1.408-.512-2.368-1.44a7.2 7.2 0 0 1-1.44-2.144 7.6 7.6 0 0 1-.544-2.528 8 8 0 0 1 .32-2.656q.351-1.248.864-2.112a5.4 5.4 0 0 1 1.248-1.408 5.8 5.8 0 0 1 1.632-.896 14.5 14.5 0 0 1 1.984-.608 6.3 6.3 0 0 1 2.368 0q1.248.225 2.24.832a3.6 3.6 0 0 1 1.28 1.184m15.572-1.792q.257.607.032 1.344-.192.735-.736.96-.288.128-.768.224-.48.064-1.056.128a19 19 0 0 1-2.016.128q.033.96.064 1.984l.064 1.952q.032.96.032 1.856 0 .864-.032 1.568v1.12q0 .608-.096 1.184a4.5 4.5 0 0 1-.224 1.024q-.159.416-.48.544-.992.416-1.824.224-.8-.16-1.152-.672a3.3 3.3 0 0 1-.384-.96 11 11 0 0 1-.192-1.152q-.032-.608-.032-1.152.032-.576.032-.992.033-1.345.032-3.04.032-1.728.032-3.456h-1.472a24 24 0 0 1-1.184-.096 14 14 0 0 1-1.088-.224q-.511-.16-.736-.448a2 2 0 0 1-.448-.896 2.1 2.1 0 0 1 .064-.896q.16-.448.48-.768.32-.352.736-.448.576-.16 1.632-.16a31 31 0 0 1 1.984 0 6 6 0 0 1-.032-.608q0-.32-.032-.608a12 12 0 0 1-.032-.96q0-.608.064-1.184a5.7 5.7 0 0 1 .288-1.12q.193-.544.544-.832.48-.384.96-.416.513-.064.928.128.448.192.736.576.32.352.448.8.096.384.16.928.064.512.064 1.088.033.576.032 1.152v1.056h.32q.48 0 1.12-.032a8 8 0 0 1 1.248.032q.64.065 1.152.32.513.225.768.8m9.016 8.48a5.4 5.4 0 0 0-1.376-.608 27 27 0 0 0-1.536-.416 31 31 0 0 1-1.504-.416 5 5 0 0 1-1.344-.704q-1.312-.992-1.536-2.432-.192-1.472.64-2.944a3.7 3.7 0 0 1 1.184-1.248 5.5 5.5 0 0 1 1.6-.768 6.7 6.7 0 0 1 1.824-.32 9.4 9.4 0 0 1 1.76.096q.543.096 1.152.288.607.16 1.12.448.543.288.96.736.448.416.64 1.056.128.416.032.8-.065.385-.32.64a1.36 1.36 0 0 1-.608.384 1.53 1.53 0 0 1-.768.064 4 4 0 0 1-.896-.288 15 15 0 0 1-.832-.416 6.3 6.3 0 0 0-.864-.384 2.5 2.5 0 0 0-.896-.16q-.736-.032-1.216.256t-.672.704q-.16.416.032.896.224.48.896.832.608.32 1.344.512.735.192 1.44.384.735.192 1.408.448.703.255 1.248.704 1.055.864 1.28 2.016.255 1.152-.128 2.272-.384 1.12-1.344 1.984a4.7 4.7 0 0 1-2.208 1.152 10 10 0 0 1-2.016.192q-1.056 0-2.112-.224a8.5 8.5 0 0 1-1.984-.704 5.2 5.2 0 0 1-1.568-1.216 1.85 1.85 0 0 1-.48-1.152q0-.672.256-1.152.287-.512.8-.704.511-.192 1.152.224.511.353 1.215.704.704.32 1.409.512.703.192 1.344.192.672 0 1.152-.288.703-.448.736-1.024.031-.608-.416-.928"/></mask><path fill="#FFC53D" d="M16.224 2.304q.288.384.352.896 0 .192-.032.384 0 .16-.032.32-.032.353-.416.672-.224.16-.576.32a2.4 2.4 0 0 1-.416.096q-.192 0-.448.032a1.3 1.3 0 0 1-.416.064h-1.888l-6.688.032v.096l-.032 5.216h.544q.32 0 .768-.032h2.272q1.025 0 2.24.032h.192q.353 0 .704.032h.768q.353.032.704.096.353.032.704.16.576.192.832.608.352.415.352.864v.384q0 .16-.064.352-.032.256-.416.64-.255.224-.608.288a4 4 0 0 1-.384.128q-.192.032-.416.064l-.448.064h-1.92l-5.888.032-.096 7.424v.256q0 .16-.032.32 0 .127-.032.288a6 6 0 0 0-.128.352 2 2 0 0 1-.096.32q-.225.448-.416.608-.353.256-.864.352a2.4 2.4 0 0 1-1.632-.192 3 3 0 0 1-.32-.224 1.7 1.7 0 0 1-.224-.384.5.5 0 0 1-.064-.192l-.096-.192a1 1 0 0 1-.128-.32 11 11 0 0 0-.064-.352q0-.16-.032-.32 0-.16-.032-.32a2 2 0 0 1 0-.512v-.512l.032-2.496.032-4.608q.032-1.024.032-2.08V9.184a75 75 0 0 1-.032-2.048q.031-.896.096-1.952v-.16q.032-.352.032-.64 0-.32.064-.64.065-.704.32-1.248.225-.544.64-.768.48-.288 1.024-.288.256 0 .416.032V1.44h2.304a13 13 0 0 1 1.024-.032q2.56-.032 5.056 0h.16q.353.032.704.032.384 0 .768.032.353 0 .704.096.353.065.704.192.544.16.832.544m15.614 14.08-.128 2.144a9.4 9.4 0 0 1-.352 2.048 5.3 5.3 0 0 1-.832 1.792q-.543.8-1.568 1.28a6.5 6.5 0 0 1-1.92.608 9.5 9.5 0 0 1-2.048.16 7.7 7.7 0 0 1-1.984-.32 6.3 6.3 0 0 1-1.728-.736 3.9 3.9 0 0 1-1.248-1.248 7.4 7.4 0 0 1-.768-1.664 10.6 10.6 0 0 1-.352-1.856 29 29 0 0 1-.128-1.792 37 37 0 0 1 0-4.352v-.928q0-.544.064-1.056.096-.511.288-.928a1.3 1.3 0 0 1 .64-.672q.96-.512 1.76-.064.833.448.992 1.856a10 10 0 0 1 .064 1.632q0 .895.064 1.632.033 1.088.064 2.368.033 1.248.352 2.24.352.992 1.12 1.504.8.48 2.368.032.735-.225.96-1.12.256-.896.256-2.656 0-.768-.032-1.696a53 53 0 0 1-.032-1.824q0-.928.032-1.696.064-.8.192-1.216.16-.576.672-.864a2.2 2.2 0 0 1 1.088-.288q.576-.032 1.088.224t.704.832q.192.512.256 1.312.096.768.128 1.696.033.896 0 1.856 0 .928-.032 1.76m3.349-3.808q0-.735-.032-1.568 0-.832.288-1.504.255-.607.832-.864.608-.288 1.184-.128.576.096.896.352.32.255.448.608.16.32.192.768l.064.832q.32-.576.8-.928t.992-.576.96-.32q.48-.096.736-.096 1.215 0 2.4.544 1.216.512 2.016 1.472.449.576.672 1.216.255.608.352 1.28.128.672.16 1.376l.064 1.376q.16 2.048 0 4.064-.032.416-.032.96t-.096 1.088q-.064.511-.288.928-.192.384-.672.48-.672.16-1.12.064a1.3 1.3 0 0 1-.672-.288 1.4 1.4 0 0 1-.384-.576 6 6 0 0 1-.224-.8 22 22 0 0 1-.128-.8l-.064-.96q0-.48-.032-.928v-.864q0-.608-.032-1.344t0-1.376q0-1.504-.8-2.272-.768-.8-2.112-.672a3.18 3.18 0 0 0-1.792.832q-.768.672-.736 1.76v.768q0 .353-.032.704v3.936q0 1.152-.288 1.888-.256.768-.864 1.056t-1.44-.16a1.7 1.7 0 0 1-.576-.512 4.5 4.5 0 0 1-.32-.736 5 5 0 0 1-.128-.768 56 56 0 0 0-.064-.768 36 36 0 0 1-.128-1.952v-6.592"/><path fill="#fff" d="M65.818 2.304q.288.384.352.896 0 .192-.032.384 0 .16-.032.32-.032.353-.416.672-.225.16-.576.32a2.4 2.4 0 0 1-.416.096q-.192 0-.448.032a1.3 1.3 0 0 1-.416.064h-1.888l-6.688.032v.096l-.032 5.216h.544q.32 0 .768-.032h2.272q1.024 0 2.24.032h.192q.352 0 .704.032h.768q.352.032.704.096.352.032.704.16.576.192.832.608.352.415.352.864v.384q0 .16-.064.352-.032.256-.416.64-.256.224-.608.288a4 4 0 0 1-.384.128q-.192.032-.416.064l-.448.064h-1.92l-5.888.032-.096 7.424v.256q0 .16-.032.32 0 .127-.032.288a6 6 0 0 0-.128.352 2 2 0 0 1-.096.32q-.224.448-.416.608-.353.256-.864.352a2.4 2.4 0 0 1-1.632-.192 3 3 0 0 1-.32-.224 1.7 1.7 0 0 1-.224-.384.5.5 0 0 1-.064-.192l-.096-.192a1 1 0 0 1-.128-.32 12 12 0 0 0-.064-.352q0-.16-.032-.32 0-.16-.032-.32a2 2 0 0 1 0-.512v-.512l.032-2.496.032-4.608q.032-1.024.032-2.08V9.184a74 74 0 0 1-.032-2.048q.032-.896.096-1.952v-.16q.032-.352.032-.64 0-.32.064-.64.064-.704.32-1.248.224-.544.64-.768.48-.288 1.024-.288.256 0 .416.032V1.44h2.304a13 13 0 0 1 1.024-.032q2.56-.032 5.056 0h.16q.352.032.704.032.384 0 .768.032.352 0 .704.096.352.065.704.192.543.16.832.544m4.519 8.224a7.5 7.5 0 0 1 2.016-.672 6.2 6.2 0 0 1 2.08-.096 6 6 0 0 1 2.015.544q.96.416 1.793 1.216a6.2 6.2 0 0 1 1.28 1.824 8.6 8.6 0 0 1 .64 2.208q.128.832.415 1.536.289.705.609 1.408.35.705.64 1.408.32.704.511 1.472.16.735-.127 1.44-.257.672-1.088.832-.48.096-.928-.064a3 3 0 0 1-.769-.512 7 7 0 0 1-.64-.736q-.255-.416-.48-.768-.735.96-1.6 1.504-.863.512-2.08.672-1.023.128-1.951.064t-1.984-.352q-1.377-.352-2.272-1.216a6.6 6.6 0 0 1-1.344-2.048 7.6 7.6 0 0 1-.48-2.528 9.3 9.3 0 0 1 .32-2.656q.447-1.727 1.344-2.816a6.2 6.2 0 0 1 2.08-1.664m.8 3.744q-.45.448-.704 1.056-.257.608-.32 1.28-.033.672.127 1.344t.513 1.184q.32.448 1.088.768.768.288 1.6.352.96.064 1.663-.512.737-.576 1.088-1.44a4.4 4.4 0 0 0 .353-1.888A3.7 3.7 0 0 0 76 14.56a2.3 2.3 0 0 0-1.025-.896 3 3 0 0 0-1.311-.288 3.6 3.6 0 0 0-1.409.224q-.671.224-1.12.672m25.766-2.592q.255.448.256.96.031.511-.224.96-.288.575-.832.8-.513.192-1.152.032a1.4 1.4 0 0 1-.512-.224 9 9 0 0 0-.48-.32 2.7 2.7 0 0 0-.544-.352q-.288-.16-.768-.224a4.4 4.4 0 0 0-1.056 0 3.6 3.6 0 0 0-.992.256q-.705.352-1.12 1.088-.417.704-.544 1.536a4.7 4.7 0 0 0 .032 1.632 3.14 3.14 0 0 0 .704 1.408q.383.448.992.736.64.288 1.216.352.543.064 1.088 0 .543-.096 1.056-.256.384-.16.864-.416.48-.288.928-.352.576 0 .896.32.32.288.448.736.128.416.032.896-.064.48-.352.832-.384.48-1.088.928-.705.416-1.344.608a6.1 6.1 0 0 1-1.728.288q-.929.032-1.76-.064a13 13 0 0 1-.8-.16 9 9 0 0 1-.8-.224q-1.408-.512-2.368-1.44a7.2 7.2 0 0 1-1.44-2.144 7.6 7.6 0 0 1-.544-2.528 8 8 0 0 1 .32-2.656q.351-1.248.864-2.112a5.4 5.4 0 0 1 1.248-1.408 5.8 5.8 0 0 1 1.632-.896 14.5 14.5 0 0 1 1.984-.608 6.3 6.3 0 0 1 2.368 0q1.248.225 2.24.832a3.6 3.6 0 0 1 1.28 1.184m15.572-1.792q.257.607.032 1.344-.192.735-.736.96-.288.128-.768.224-.48.064-1.056.128a19 19 0 0 1-2.016.128q.033.96.064 1.984l.064 1.952q.032.96.032 1.856 0 .864-.032 1.568v1.12q0 .608-.096 1.184a4.5 4.5 0 0 1-.224 1.024q-.159.416-.48.544-.992.416-1.824.224-.8-.16-1.152-.672a3.3 3.3 0 0 1-.384-.96 11 11 0 0 1-.192-1.152q-.032-.608-.032-1.152.032-.576.032-.992.033-1.345.032-3.04.032-1.728.032-3.456h-1.472a24 24 0 0 1-1.184-.096 14 14 0 0 1-1.088-.224q-.511-.16-.736-.448a2 2 0 0 1-.448-.896 2.1 2.1 0 0 1 .064-.896q.16-.448.48-.768.32-.352.736-.448.576-.16 1.632-.16a31 31 0 0 1 1.984 0 6 6 0 0 1-.032-.608q0-.32-.032-.608a12 12 0 0 1-.032-.96q0-.608.064-1.184a5.7 5.7 0 0 1 .288-1.12q.193-.544.544-.832.48-.384.96-.416.513-.064.928.128.448.192.736.576.32.352.448.8.096.384.16.928.064.512.064 1.088.033.576.032 1.152v1.056h.32q.48 0 1.12-.032a8 8 0 0 1 1.248.032q.64.065 1.152.32.513.225.768.8m9.016 8.48a5.4 5.4 0 0 0-1.376-.608 27 27 0 0 0-1.536-.416 31 31 0 0 1-1.504-.416 5 5 0 0 1-1.344-.704q-1.312-.992-1.536-2.432-.192-1.472.64-2.944a3.7 3.7 0 0 1 1.184-1.248 5.5 5.5 0 0 1 1.6-.768 6.7 6.7 0 0 1 1.824-.32 9.4 9.4 0 0 1 1.76.096q.543.096 1.152.288.607.16 1.12.448.543.288.96.736.448.416.64 1.056.128.416.032.8-.065.385-.32.64a1.36 1.36 0 0 1-.608.384 1.53 1.53 0 0 1-.768.064 4 4 0 0 1-.896-.288 15 15 0 0 1-.832-.416 6.3 6.3 0 0 0-.864-.384 2.5 2.5 0 0 0-.896-.16q-.736-.032-1.216.256t-.672.704q-.16.416.032.896.224.48.896.832.608.32 1.344.512.735.192 1.44.384.735.192 1.408.448.703.255 1.248.704 1.055.864 1.28 2.016.255 1.152-.128 2.272-.384 1.12-1.344 1.984a4.7 4.7 0 0 1-2.208 1.152 10 10 0 0 1-2.016.192q-1.056 0-2.112-.224a8.5 8.5 0 0 1-1.984-.704 5.2 5.2 0 0 1-1.568-1.216 1.85 1.85 0 0 1-.48-1.152q0-.672.256-1.152.287-.512.8-.704.511-.192 1.152.224.511.353 1.215.704.704.32 1.409.512.703.192 1.344.192.672 0 1.152-.288.703-.448.736-1.024.031-.608-.416-.928"/><path fill="#AB6400" d="M16.576 3.2h1v-.062l-.008-.062zm-.032.384-.986-.164-.014.081v.083zm-.032.32-.98-.196-.011.052-.005.053zm-.416.672.581.814.03-.022.03-.024zm-.576.32.316.949.05-.017.048-.022zm-.416.096v1h.071l.07-.01zm-.448.032-.124-.992-.098.012-.094.031zm-2.304.064v-1h-.005zm-6.688.032-.005-1-.995.005v.995zm0 .096 1 .006v-.006zm-.032 5.216-1-.006-.006 1.006h1.006zm1.312-.032v-1h-.036l-.035.003zm4.512.032-.026 1h.026zm.896.032-.09.996.045.004h.045zm.768 0 .09-.996-.045-.004h-.045zm.704.096-.179.984.044.008.044.004zm.704.16-.342.94.013.004.013.005zm.832.608-.852.524.04.064.049.058zm.288 1.6-.949-.316-.031.094-.012.098zm-.416.64.659.753.025-.022.023-.024zm-.608.288-.179-.984-.099.018-.093.037zm-.384.128.164.986.056-.009.055-.016zm-.416.064-.141-.99zm-.448.064v1h.071l.07-.01zm-1.92 0v-1h-.005zm-5.888.032-.005-1-.982.005-.013.982zm-.096 7.424-1-.013v.013zm-.032.576-.98-.196-.02.097v.099zm-.032.288.928.371.035-.085.018-.09zm-.128.352-.949-.316-.02.059-.012.06zm-.096.32.894.447.019-.037.015-.039zm-.416.608.588.809.027-.02.025-.02zm-.864.352-.184-.983-.017.003-.016.004zm-1.632-.192-.514.858.032.02.035.016zm-.32-.224-.78.625.069.087.086.069zm-.224-.384.92-.394-.012-.027-.014-.026zm-.064-.192h1v-.236l-.106-.211zm-.096-.192.894-.447-.017-.035-.02-.032zm-.128-.32-.986.164.002.016.003.016zm-.064-.352h-1v.099l.02.097zm-.032-.32h-1v.099l.02.097zm-.032-.32-.992.124.004.036.007.036zm0-.512.992.124.008-.062v-.062zm0-.512-1-.013v.013zm.032-2.496 1 .013v-.006zm.032-4.608-1-.031v.024zm.032-4.256h1v-.028zm-.032-2.048-1-.036v.036zm.096-1.952.998.06.002-.03v-.03zm0-.16-.996-.09-.004.045v.045zm.096-1.28.98.196.011-.052.005-.053zm.32-1.248.905.426.01-.022.01-.023zm.64-.768.474.88.02-.01.02-.013zm1.44-.256-.196.98 1.196.24v-1.22zm0-.032v-1h-1v1zm2.304 0v1h.042l.041-.003zm1.024-.032v1h.013zm5.056 0-.013 1h.013zm.16 0 .09-.996-.045-.004h-.045zm1.472.064-.083.997.041.003h.042zm.704.096-.263.965.042.011.042.008zm.704.192-.342.94.03.01.03.01zm.032 1.144c.08.106.137.238.16.42l1.984-.248c-.062-.5-.24-.966-.544-1.372zm.152.296q0 .108-.018.22l1.972.328q.046-.272.046-.548zm-.032.384q0 .059-.013.124l1.962.392q.051-.255.051-.516zm-.028.23a.3.3 0 0 1 .014-.065q.01-.026.012-.027l-.018.022a1 1 0 0 1-.068.064l1.28 1.536c.375-.312.718-.758.772-1.35zm-.001-.052c-.08.058-.211.134-.409.224l.828 1.82c.272-.123.525-.26.743-.416zm-.311.185q-.097.033-.241.055l.282 1.98q.304-.043.591-.137zm-.1.045q-.272.001-.572.04l.248 1.984q.213-.026.324-.024zm-.764.083a.3.3 0 0 1-.1.013v2c.245 0 .492-.035.732-.115zm-.1.013h-.448v2h.448zm-.448 0h-1.44v2h1.44zm-1.445 0L5.66 4.12l.01 2 6.688-.032zM4.664 5.12v.096h2V5.12zm0 .09-.032 5.216 2 .012.032-5.216zm.968 6.222h.544v-2h-.544zm.544 0q.367 0 .84-.034l-.143-1.995q-.425.03-.697.029zm.768-.032h2.272v-2H6.944zm2.272 0q1.008 0 2.214.032l.052-2A87 87 0 0 0 9.216 9.4zm2.24.032h.192v-2h-.192zm.192 0q.306 0 .614.028l.18-1.992a9 9 0 0 0-.794-.036zm.704.032h.768v-2h-.768zm.678-.004q.307.027.615.084l.358-1.968a9 9 0 0 0-.793-.108zm.704.096q.215.018.452.104l.684-1.88a3.8 3.8 0 0 0-.955-.216zm.478.113c.217.072.276.15.296.183l1.704-1.048c-.322-.522-.817-.849-1.368-1.033zm.385.305c.116.137.115.204.115.218h2c0-.584-.235-1.093-.589-1.51zm.115.218v.384h2v-.384zm0 .384v-.01l-.013.046 1.898.632c.068-.204.115-.43.115-.668zm-.056.228a.5.5 0 0 1 .03-.125q.015-.027.004-.008a1 1 0 0 1-.053.07 2 2 0 0 1-.112.12l1.414 1.414c.271-.27.635-.692.701-1.223zm-.083.011a.24.24 0 0 1-.128.057l.358 1.968a2.24 2.24 0 0 0 1.087-.52zm-.32.113a3 3 0 0 1-.288.095l.55 1.922q.258-.073.48-.16zm-.177.07q-.18.03-.393.06l.282 1.98q.234-.033.44-.068zm-.393.06-.448.064.282 1.98.448-.064zm-.307.054h-.448v2h.448zm-.448 0h-1.472v2h1.472zm-1.477 0-5.888.032.01 2 5.888-.032zm-6.883 1.02-.096 7.423 2 .026.096-7.424zm-.096 7.436v.256h2v-.256zm0 .256a.6.6 0 0 1-.013.124l1.962.392q.051-.255.051-.516zm-.032.32c0 .004 0 .033-.013.092l1.962.392c.03-.154.051-.318.051-.484zm.04-.083q-.077.19-.149.407l1.898.632q.056-.167.107-.297zm-.18.527a1 1 0 0 1-.044.145l1.856.742q.098-.24.149-.495zm-.01.069c-.061.122-.11.205-.147.258-.04.058-.047.055-.015.029l1.28 1.536c.295-.245.509-.606.67-.929zm-.11.246a1.1 1.1 0 0 1-.46.178l.368 1.966a3.1 3.1 0 0 0 1.268-.526zm-.493.185c-.36.08-.668.04-.968-.11l-.894 1.788c.724.363 1.503.45 2.296.274zm-.9-.073a2 2 0 0 1-.21-.148l-1.25 1.562q.208.166.43.3zm-.054.008a.7.7 0 0 1-.086-.153l-1.838.788c.093.217.211.426.362.615zm-.11-.206c-.009-.016-.003-.008.006.019q.007.021.02.076c.006.035.015.09.015.16h-2c0 .297.123.546.17.64zm-.065-.192-.096-.192-1.788.894.096.192zm-.133-.26-.009-.016q.001 0 .005.015l-1.962.392c.047.234.137.447.252.639zm.001.03a12 12 0 0 0-.07-.383l-1.96.392q.027.142.058.32zm-.05-.187q0-.261-.051-.516l-1.962.392a.6.6 0 0 1 .013.124zm-.032-.32q0-.261-.051-.516l-1.962.392a.6.6 0 0 1 .013.124zm-.04-.444a1 1 0 0 1 0-.264L.32 20.932a3 3 0 0 0 0 .76zm.008-.388v-.512h-2v.512zm0-.5.032-2.495-2-.026-.032 2.496zm.032-2.501.032-4.608-2-.014-.032 4.608zm.032-4.584q.032-1.04.032-2.111h-2q0 1.041-.032 2.049zm.032-2.111V9.184h-2v2.176zm0-2.204a74 74 0 0 1-.032-2.02h-2q0 .914.032 2.076zm-.033-1.984q.032-.882.095-1.927L.474 5.123A80 80 0 0 0 .377 7.1zm.097-1.988v-.16h-2v.16zm-.004-.07q.035-.387.036-.73h-2q0 .233-.028.55zm.036-.73q0-.219.045-.444L.587 3.548a4.3 4.3 0 0 0-.083.836zm.06-.55c.034-.373.116-.672.229-.912L.983 2.07a4.7 4.7 0 0 0-.41 1.583zm.249-.957c.083-.203.161-.253.19-.269l-.95-1.76c-.526.283-.875.745-1.09 1.267zm.23-.292a.96.96 0 0 1 .509-.145v-2c-.55 0-1.068.148-1.538.43zm.509-.145c.137 0 .203.01.22.013L4.164.49A3 3 0 0 0 3.552.44zm1.416-.968V1.44h-2v.032zm-1 .968h.928v-2h-.928zm.928 0h.672v-2h-.672zm.672 0h.704v-2h-.704zm.787-.003a12 12 0 0 1 .941-.029v-2c-.439 0-.811.01-1.107.035zm.954-.03a199 199 0 0 1 5.03 0l.026-1.999a201 201 0 0 0-5.081 0zm5.043.001h.16v-2h-.16zm.07-.004q.396.036.794.036v-2q-.306 0-.614-.028zm.794.036q.342 0 .685.029l.166-1.994a10 10 0 0 0-.851-.035zm.768.032q.214 0 .44.06l.527-1.929a3.7 3.7 0 0 0-.967-.131zm.525.08q.265.047.541.148l.684-1.88a5.3 5.3 0 0 0-.867-.236zm.6.167c.195.058.275.131.315.185l1.6-1.2c-.344-.458-.82-.747-1.35-.903zm16.73 13.665.997.06.001-.01v-.012zm-.129 2.144.998.06v-.001zm-.352 2.048-.96-.279-.004.015-.004.014zm-.832 1.792-.811-.584-.008.01-.008.012zm-1.568 1.28-.424-.905-.012.005-.011.006zm-1.92.608-.154-.988-.015.002-.015.003zm-4.032-.16.288-.958-.015-.004-.015-.004zm-1.728-.736.53-.848zm-1.248-1.248.848-.53zm-.768-1.664-.961.275.004.015.005.016zm-.48-3.648 1-.038v-.01l-.001-.01zm0-4.352.999.06.001-.03v-.03zm.064-1.984-.983-.184-.005.03-.004.03zm.288-.928.908.42.006-.013.005-.013zm.64-.672.447.894.012-.005.012-.007zm1.76-.064-.488.873.007.004.007.003zm.992 1.856-.993.113v.008l.002.008zm.064 1.632-1-.036v.036zm.064 1.632 1-.03-.001-.028-.002-.029zm.064 2.368-1 .025zm.352 2.24-.951.307.004.014.005.013zm1.12 1.504-.554.832.02.013.02.013zm2.368.032.275.962.008-.003.008-.002zm.96-1.12-.961-.275-.005.016-.004.017zm.224-4.352-1 .034zm0-3.52-.997-.08-.001.02v.018zm.192-1.216.956.294.004-.013.004-.013zm1.76-1.152v1h.028l.028-.002zm1.088.224-.447.894zm.704.832-.948.316.005.018.007.017zm.256 1.312-.997.08.002.022.003.022zm.128 1.696-1 .034v.002zm0 1.856-1-.033v.033zm-1.03 1.7-.128 2.145 1.997.118.127-2.142zm-.128 2.143a8.4 8.4 0 0 1-.314 1.83l1.92.558q.32-1.101.39-2.267zm-.322 1.86a4.3 4.3 0 0 1-.675 1.457l1.623 1.168c.46-.638.788-1.35.989-2.126zm-.69 1.479c-.246.361-.618.68-1.166.936l.849 1.811c.817-.383 1.49-.918 1.97-1.623zm-1.189.948a5.5 5.5 0 0 1-1.627.514l.309 1.976a7.5 7.5 0 0 0 2.212-.702zm-1.657.52a8.5 8.5 0 0 1-1.832.142l-.063 2q1.134.034 2.264-.177zm-1.832.142a6.7 6.7 0 0 1-1.728-.278l-.575 1.916a8.7 8.7 0 0 0 2.24.362zm-1.758-.286a5.3 5.3 0 0 1-1.456-.618l-1.06 1.696c.604.378 1.274.66 2 .854zm-1.456-.618a2.9 2.9 0 0 1-.93-.93l-1.696 1.06c.4.64.926 1.166 1.566 1.566zm-.93-.93a6.4 6.4 0 0 1-.664-1.44l-1.904.612q.324 1.01.872 1.888zm-.654-1.409a9.6 9.6 0 0 1-.319-1.68l-1.99.199q.105 1.046.386 2.03zm-.319-1.68q-.093-.934-.123-1.731l-1.999.076q.033.867.132 1.854zm-.124-1.75a36 36 0 0 1 0-4.235l-1.997-.12a38 38 0 0 0 0 4.47zm.001-4.295v-.928h-2v.928zm0-.928q.001-.485.056-.932l-1.984-.248a10 10 0 0 0-.072 1.18zm.047-.872q.078-.404.213-.693l-1.816-.838a5 5 0 0 0-.363 1.163zm.224-.718a.31.31 0 0 1 .168-.172l-.894-1.788c-.504.251-.888.65-1.112 1.172zm.192-.184c.404-.215.624-.173.8-.073l.978-1.746c-.89-.498-1.844-.412-2.72.055zm.815-.066c.142.077.384.305.473 1.089l1.987-.226c-.124-1.093-.544-2.103-1.512-2.623zm.475 1.105q.084.638.056 1.467l1.999.072q.035-.964-.072-1.797zm.055 1.503q0 .93.068 1.719l1.992-.174q-.06-.683-.06-1.545zm.065 1.661q.031 1.086.064 2.364l1.999-.05q-.032-1.282-.064-2.372zm.064 2.365c.023.909.152 1.753.4 2.521l1.903-.614c-.179-.554-.285-1.204-.304-1.959zm.409 2.548c.296.835.791 1.525 1.508 2.002l1.109-1.664c-.308-.205-.56-.519-.732-1.006zm1.548 2.028c.897.538 2.032.457 3.157.136l-.55-1.924c-.965.276-1.409.174-1.578.072zm3.173.13c.9-.273 1.425-.975 1.64-1.834l-1.94-.485c-.085.337-.2.381-.282.406zm1.63-1.801c.21-.734.295-1.732.295-2.931h-2c0 1.147-.086 1.92-.217 2.381zm.295-2.931q0-.79-.032-1.73l-2 .069q.032.914.032 1.661zm-.032-1.73a52 52 0 0 1-.032-1.79h-2q0 .915.033 1.858zm-.032-1.79q0-.911.031-1.654l-1.998-.084a42 42 0 0 0-.033 1.738zm.03-1.616c.04-.51.097-.83.15-1.002l-1.912-.588c-.117.383-.188.874-.233 1.43zm.158-1.028a.38.38 0 0 1 .198-.26l-.98-1.744a2.37 2.37 0 0 0-1.145 1.468zm.198-.26c.195-.11.39-.16.598-.16v-2c-.559 0-1.09.142-1.578.416zm.654-.162c.211-.011.4.028.585.12l.895-1.788a3.13 3.13 0 0 0-1.591-.328zm.585.12c.089.045.153.105.203.254l1.897-.632a2.37 2.37 0 0 0-1.206-1.41zm.215.29c.084.223.157.56.195 1.04l1.994-.16c-.047-.587-.144-1.124-.316-1.583zm.2 1.084q.09.715.12 1.607l2-.07a20 20 0 0 0-.136-1.785zm.12 1.608q.032.858 0 1.787l2 .066q.033-.992 0-1.925zm0 1.82q0 .91-.031 1.722l1.999.076q.032-.852.032-1.798zm4.285-3.616h-1v.038zm.288-1.504.92.394.002-.006zm.832-.864.406.914.011-.005.011-.005zm1.184-.128-.268.964.051.014.053.008zm.896.352-.625.78zm.448.608-.94.342.02.054.026.051zm.192.768-.997.071v.006zm.064.832-.997.077.255 3.317 1.616-2.908zm2.752-1.824-.196-.98-.014.002zm3.136.448-.418.909.015.006.015.007zm2.016 1.472.79-.614-.011-.013-.01-.013zm.672 1.216-.944.33.01.03.012.028zm.352 1.28-.99.141.003.023.005.023zm.16 1.376-.999.045v.003zm.064 1.376-.999.045v.017l.002.016zm0 4.064-.997-.08v.003zm-.128 2.048-.985-.174-.004.025-.003.025zm-.288.928-.88-.474-.008.013-.006.014zm-.672.48-.196-.98-.018.003-.018.004zm-1.12.064.21-.978-.03-.006-.028-.004zm-.672-.288-.659.753zm-.384-.576-.94.342zm-.224-.8-.984.179.003.015.003.015zm-.128-.8-.998.066.003.038.005.037zm-.064-.96h-1v.033l.002.033zm-.032-.928h-1v.036l.002.035zm-.032-2.208 1-.043zm0-1.376.999.05.001-.025v-.025zm-.8-2.272-.721.693.014.014.014.014zm-2.112-.672-.095-.995h-.014l-.015.003zm-1.792.832.659.753.008-.008.009-.008zm-.736 1.76h1v-.029zm-.032 1.472-.996-.09-.004.045v.045zm-.288 5.824-.931-.364-.01.024-.008.024zm-.864 1.056-.428-.904zm-1.44-.16-.479.878.005.003zm-.576-.512-.878.479.027.049.032.045zm-.32-.736-.97.242.01.038.011.036zm-.128-.768-.997.077v.006zm-.064-.768-.996.09zm-.128-1.952h-1v.036zm1-6.592q0-.757-.033-1.606l-1.998.076q.03.816.031 1.53zm-.032-1.568c0-.438.075-.803.207-1.11l-1.838-.788a4.8 4.8 0 0 0-.369 1.898zm.21-1.116a.58.58 0 0 1 .316-.338l-.812-1.828a2.57 2.57 0 0 0-1.348 1.39zm.338-.348c.217-.103.365-.103.488-.068l.536-1.928c-.645-.179-1.287-.093-1.88.188zm.592-.046c.282.048.4.119.435.147l1.25-1.562c-.392-.313-.871-.477-1.357-.557zm.435.147a.4.4 0 0 1 .133.169l1.88-.684a2.37 2.37 0 0 0-.763-1.047zm.179.274c.035.07.074.192.089.392l1.995-.142a3 3 0 0 0-.296-1.144zm.089.398.064.832 1.994-.154-.064-.832zm1.935 1.24a1.8 1.8 0 0 1 .517-.607l-1.182-1.612a3.8 3.8 0 0 0-1.083 1.248zm.517-.607q.397-.29.802-.466l-.802-1.832q-.62.271-1.182.686zm.802-.466a4 4 0 0 1 .768-.258l-.419-1.956c-.376.08-.76.211-1.15.382zm.755-.255c.303-.06.47-.077.54-.077v-2c-.271 0-.595.048-.932.115zm.54-.077c.656 0 1.315.146 1.983.453l.834-1.818a6.7 6.7 0 0 0-2.817-.635zm2.012.466c.672.282 1.21.68 1.636 1.19l1.536-1.28a6.2 6.2 0 0 0-2.396-1.754zm1.615 1.164c.237.305.406.616.517.932l1.888-.66a5.3 5.3 0 0 0-.827-1.5zm.54.99q.204.486.283 1.033l1.98-.282a6.2 6.2 0 0 0-.42-1.527zm.29 1.08q.115.598.144 1.233l1.998-.09a11 11 0 0 0-.177-1.518zm.144 1.236.064 1.373 1.998-.09-.064-1.379zm.066 1.406a25 25 0 0 1 0 3.907l1.994.158q.165-2.096 0-4.22zm0 3.91q-.035.463-.035 1.036h2q0-.516.03-.883zm-.035 1.036q0 .455-.08.914l1.969.348q.111-.63.111-1.262zm-.088.964c-.029.23-.09.419-.177.578l1.761.948c.214-.396.344-.825.4-1.278zm-.19.605.017-.025a.2.2 0 0 1 .032-.03c.022-.016.023-.008-.023.001l.392 1.962c.575-.115 1.084-.44 1.37-1.014zm-.01-.046c-.37.088-.58.08-.678.06l-.42 1.955c.5.107 1.036.056 1.562-.07zm-.736.049a.6.6 0 0 1-.134-.035.1.1 0 0 1-.032-.018l-1.316 1.506c.344.3.757.459 1.178.523zm-.166-.053a.4.4 0 0 1-.102-.165l-1.88.684c.137.377.355.715.666.987zm-.102-.165a5 5 0 0 1-.186-.668l-1.956.42q.107.502.262.932zm-.18-.637q-.06-.33-.122-.762l-1.98.282q.066.462.134.838zm-.114-.687-.064-.96-1.996.132.064.96zm-.062-.894q0-.513-.035-1l-1.995.143q.03.411.03.857zm-.032-.928v-.864h-2v.864zm0-.864q0-.634-.033-1.387l-1.998.086q.03.72.031 1.301zm-.033-1.387q-.03-.696 0-1.283l-1.998-.1q-.035.693 0 1.47zm.001-1.333c0-1.175-.316-2.233-1.108-2.993l-1.385 1.442c.275.264.493.72.493 1.551zM44.388 13.1c-.77-.802-1.801-1.083-2.928-.976l.19 1.992c.665-.064 1.041.104 1.296.369zm-2.957-.972c-.89.111-1.68.479-2.344 1.087l1.352 1.474c.36-.33.765-.517 1.24-.577zm-2.326 1.071c-.754.66-1.107 1.541-1.078 2.542l2-.058c-.014-.45.124-.742.395-.978zm-1.078 2.513v.768h2v-.768zm0 .768q0 .306-.028.613l1.992.181q.036-.396.036-.794zm-.032.704v.768h2v-.768zm0 .768v.928h2v-.928zm0 .928v2.24h2v-2.24zm0 2.24c0 .695-.088 1.19-.22 1.524l1.863.728c.253-.647.357-1.411.357-2.252zm-.237 1.572c-.103.31-.233.416-.343.468l.856 1.808c.7-.332 1.147-.93 1.385-1.644zm-.343.468c-.013.006-.142.077-.538-.137l-.948 1.762c.714.384 1.545.56 2.342.183zm-.533-.134a.7.7 0 0 1-.236-.207l-1.638 1.146c.24.344.55.617.916.817zm-.177-.113a3.5 3.5 0 0 1-.25-.573l-1.897.632q.156.468.391.899zm-.228-.5a4 4 0 0 1-.101-.608l-1.993.166q.038.466.154.927zm-.1-.602a58 58 0 0 0-.066-.782l-1.992.181q.032.345.063.755zm-.066-.782a35 35 0 0 1-.125-1.897l-1.998.072q.033.927.131 2.006zm-.124-1.861v-1.984h-2v1.984zm0-1.984v-4.608h-2v4.608zM66.17 3.2h1v-.062l-.008-.062zm-.032.384-.987-.164-.013.081v.083zm-.032.32-.98-.196-.011.052-.005.053zm-.416.672.581.814.03-.022.029-.024zm-.576.32.316.949.05-.017.048-.022zm-.416.096v1h.07l.071-.01zm-.448.032-.124-.992-.099.012-.093.031zm-2.304.064v-1h-.005zm-6.688.032-.005-1-.995.005v.995zm0 .096 1 .006v-.006zm-.032 5.216-1-.006-.006 1.006h1.006zm1.312-.032v-1h-.036l-.035.003zm4.512.032-.027 1h.027zm.896.032-.09.996.044.004h.046zm.768 0 .09-.996-.045-.004h-.045zm.704.096-.18.984.045.008.044.004zm.704.16-.342.94.013.004.013.005zm.832.608-.852.524.04.064.048.058zm.288 1.6-.949-.316-.031.094-.013.098zm-.416.64.658.753.025-.022.024-.024zm-.608.288-.18-.984-.098.018-.094.037zm-.384.128.164.986.056-.009.055-.016zm-.416.064-.142-.99zm-.448.064v1h.07l.071-.01zm-1.92 0v-1h-.006zm-5.888.032-.006-1-.981.005-.013.982zm-.096 7.424-1-.013v.013zm-.032.576-.98-.196-.02.097v.099zm-.032.288.928.371.034-.085.018-.09zm-.128.352-.949-.316-.02.059-.012.06zm-.096.32.894.447.019-.037.015-.039zm-.416.608.588.809.027-.02.025-.02zm-.864.352-.184-.983-.017.003-.016.004zm-1.632-.192-.515.858.033.02.035.016zm-.32-.224-.781.625.07.087.086.069zm-.224-.384.919-.394-.012-.027-.013-.026zm-.064-.192h1v-.236l-.106-.211zm-.096-.192.894-.447-.017-.035-.02-.032zm-.128-.32-.987.164.003.016.003.016zm-.064-.352h-1v.099l.02.097zm-.032-.32h-1v.099l.02.097zm-.032-.32-.992.124.004.036.007.036zm0-.512.992.124.008-.062v-.062zm0-.512-1-.013v.013zm.032-2.496 1 .013v-.006zm.032-4.608-1-.031v.024zm.032-4.256h1v-.028zm-.032-2.048-1-.036v.036zm.096-1.952.998.06.002-.03v-.03zm0-.16-.996-.09-.004.045v.045zm.096-1.28.98.196.01-.052.006-.053zm.32-1.248.905.426.01-.022.01-.023zm.64-.768.474.88.02-.01.02-.013zm1.44-.256-.196.98 1.196.24v-1.22zm0-.032v-1h-1v1zm2.304 0v1h.041l.042-.003zm1.024-.032v1h.012zm5.056 0-.013 1h.013zm.16 0 .09-.996-.045-.004h-.045zm1.472.064-.083.997.041.003h.042zm.704.096-.263.965.041.011.043.008zm.704.192-.342.94.03.01.03.01zm.032 1.144a.85.85 0 0 1 .16.42l1.984-.248c-.063-.5-.24-.966-.544-1.372zm.152.296q0 .108-.019.22l1.973.328q.046-.272.046-.548zm-.032.384q0 .059-.013.124l1.961.392q.052-.255.052-.516zm-.028.23a.3.3 0 0 1 .014-.065q.01-.026.011-.027.002 0-.018.022a1 1 0 0 1-.067.064l1.28 1.536c.374-.312.718-.758.772-1.35zm-.001-.052c-.08.058-.212.134-.41.224l.829 1.82c.271-.123.525-.26.743-.416zm-.311.185q-.097.033-.242.055l.283 1.98q.304-.043.591-.137zm-.1.045q-.272.001-.572.04l.248 1.984q.212-.026.324-.024zm-.764.083a.3.3 0 0 1-.1.013v2c.245 0 .492-.035.732-.115zm-.1.013h-.448v2h.448zm-.448 0h-1.44v2h1.44zm-1.445 0-6.688.032.01 2 6.688-.032zM54.258 5.12v.096h2V5.12zm0 .09-.032 5.216 2 .012.032-5.216zm.968 6.222h.544v-2h-.544zm.544 0q.367 0 .839-.034l-.142-1.995q-.425.03-.697.029zm.768-.032h2.272v-2h-2.272zm2.272 0q1.008 0 2.213.032l.053-2A87 87 0 0 0 58.81 9.4zm2.24.032h.192v-2h-.192zm.192 0q.306 0 .613.028l.181-1.992a9 9 0 0 0-.794-.036zm.704.032h.768v-2h-.768zm.677-.004q.307.027.616.084l.358-1.968a9 9 0 0 0-.793-.108zm.704.096q.215.018.453.104l.683-1.88a3.8 3.8 0 0 0-.955-.216zm.479.113c.217.072.276.15.296.183l1.703-1.048c-.321-.522-.816-.849-1.367-1.033zm.384.305c.117.137.116.204.116.218h2c0-.584-.236-1.093-.589-1.51zm.116.218v.384h2v-.384zm0 .384v-.01l-.013.046 1.897.632c.069-.204.116-.43.116-.668zm-.056.228a.5.5 0 0 1 .03-.125c.008-.018.012-.021.003-.008a1 1 0 0 1-.053.07 2 2 0 0 1-.111.12l1.414 1.414c.27-.27.635-.692.701-1.223zm-.083.011a.24.24 0 0 1-.128.057l.358 1.968a2.24 2.24 0 0 0 1.087-.52zm-.32.113c-.067.026-.16.058-.288.095l.55 1.922q.258-.073.48-.16zm-.178.07q-.178.03-.393.06l.283 1.98q.233-.033.44-.068zm-.393.06-.448.064.283 1.98.448-.064zm-.306.054zh-.447v2h.447zm-.448 0H61.05v2h1.472zm-1.478 0-5.888.032.011 2 5.888-.032zm-6.882 1.02-.096 7.423 2 .026.096-7.424zm-.096 7.436v.256h2v-.256zm0 .256q0 .059-.013.124l1.961.392q.051-.255.052-.516zm-.032.32c0 .004-.001.033-.013.092l1.961.392c.031-.154.052-.318.052-.484zm.04-.083q-.078.19-.149.407l1.897.632q.057-.167.108-.297zm-.18.527a1 1 0 0 1-.045.145l1.857.742q.096-.24.148-.495zm-.01.069c-.062.122-.111.205-.148.258-.039.058-.046.055-.014.029l1.28 1.536c.295-.245.509-.606.67-.929zm-.11.246a1.1 1.1 0 0 1-.46.178l.368 1.966a3.1 3.1 0 0 0 1.268-.526zm-.493.185c-.36.08-.668.04-.968-.11l-.895 1.788c.725.363 1.504.45 2.297.274zm-.9-.073a2 2 0 0 1-.21-.148l-1.25 1.562q.207.166.43.3zm-.054.008a.7.7 0 0 1-.086-.153l-1.838.788c.093.217.21.426.362.615zm-.11-.206c-.009-.016-.004-.008.005.019q.009.021.02.076c.007.035.016.09.016.16h-2c0 .297.123.546.17.64zm-.065-.192-.096-.192-1.789.894.096.192zm-.133-.26q-.01-.016-.009-.016l.004.015-1.96.392c.046.234.136.447.25.639zm.001.03a12 12 0 0 0-.07-.383l-1.96.392q.028.142.057.32zm-.05-.187q0-.261-.052-.516l-1.96.392a.6.6 0 0 1 .012.124zm-.032-.32q0-.261-.052-.516l-1.96.392a.6.6 0 0 1 .012.124zm-.04-.444a1 1 0 0 1 0-.264l-1.985-.248a3 3 0 0 0 0 .76zm.008-.388v-.512h-2v.512zm0-.5.032-2.495-2-.026-.032 2.496zm.032-2.501.032-4.608-2-.014-.032 4.608zm.031-4.584q.033-1.04.033-2.111h-2q0 1.041-.032 2.049zm.033-2.111V9.184h-2v2.176zm0-2.204a73 73 0 0 1-.032-2.02h-2q0 .914.032 2.076zm-.033-1.984q.032-.882.095-1.927l-1.996-.122A80 80 0 0 0 49.97 7.1zm.097-1.988v-.16h-2v.16zm-.004-.07a8 8 0 0 0 .036-.73h-2q0 .233-.028.55zm.036-.73q0-.219.044-.444l-1.96-.392a4.3 4.3 0 0 0-.084.836zm.06-.55c.034-.373.115-.672.229-.912l-1.81-.852a4.7 4.7 0 0 0-.411 1.583zm.248-.957c.084-.203.162-.253.19-.269l-.948-1.76c-.527.283-.876.745-1.09 1.267zm.23-.292a.96.96 0 0 1 .51-.145v-2c-.55 0-1.068.148-1.539.43zm.51-.145c.137 0 .203.01.22.013L53.758.49a3 3 0 0 0-.612-.051zm1.416-.968V1.44h-2v.032zm-1 .968h.928v-2h-.928zm.928 0h.671v-2h-.671zm.672 0zh.703v-2h-.704zm.787-.003a12 12 0 0 1 .94-.029v-2c-.438 0-.81.01-1.106.035zm.953-.03a199 199 0 0 1 5.03 0L61.96.409a201 201 0 0 0-5.082 0zm5.044.001h.16v-2h-.16zm.07-.004q.396.036.794.036v-2q-.307 0-.614-.028zm.794.036q.342 0 .685.029L63.66.475A10 10 0 0 0 62.81.44zm.768.032q.213 0 .44.06l.527-1.929a3.7 3.7 0 0 0-.967-.131zm.525.08q.265.047.541.148l.683-1.88a5.3 5.3 0 0 0-.866-.236zm.6.167c.195.058.274.131.315.185l1.6-1.2c-.344-.458-.82-.747-1.35-.903zm5.633 7.809.438.9.01-.006zm2.017-.672.178.984.015-.003.014-.003zm2.08-.096-.125.992.017.002.017.002zm2.015.544-.422.906.012.006.013.006zm1.793 1.216.707-.707-.007-.007-.007-.007zm1.28 1.824.91-.412zm.64 2.208.988-.152v-.004zm1.023 2.944-.91.414.008.017.008.016zm.64 1.408-.925.379.007.017.008.018zm.513 1.472.977-.212-.004-.016-.003-.014zm-.129 1.44-.925-.379-.005.012-.004.011zm-1.087.832-.19-.982-.007.001zm-.928-.064-.42.908.041.019.042.015zm-.769-.512-.707.707.017.017.018.016zm-.64-.736-.851.524.024.04.028.036zm-.48-.768.844-.537-.767-1.206-.87 1.135zm-1.6 1.504.51.86.012-.007.011-.007zm-2.08.672.125.992h.006zm-1.951.064-.07.998zm-1.984-.352.263-.965-.008-.002-.008-.002zm-2.272-1.216-.72.694.012.013.013.013zm-1.344-2.048-.936.354.006.015.006.016zm-.48-2.528 1-.024zm.32-2.656.965.26.002-.009zm1.344-2.816.771.636zm2.175 3.136-.921-.388zm-.32 1.28-.995-.095-.002.024-.001.023zm.129 1.344.972-.232zm.511 1.184-.823.567.004.007.006.007zm1.089.768-.385.923.016.007.017.006zm1.6.352-.077.997h.01zm1.663-.512-.616-.788-.008.007-.009.007zm1.088-1.44-.919-.394-.003.008-.004.009zm.353-1.888-1 .031v.001zM76 14.56l.851-.524-.006-.01zm-1.025-.896-.428.904.01.004.008.004zm-1.311-.288-.046.999.023.001h.023zm-1.409.224.317.949.013-.005.012-.004zm-1.472-2.178a6.5 6.5 0 0 1 1.747-.582l-.357-1.968q-1.197.218-2.285.762zm1.776-.588a5.2 5.2 0 0 1 1.748-.082l.248-1.984a7.2 7.2 0 0 0-2.411.11zm1.782-.078a5 5 0 0 1 1.684.454l.845-1.812a7 7 0 0 0-2.348-.634zm1.709.466c.52.225 1.019.56 1.496 1.019l1.387-1.442a7.1 7.1 0 0 0-2.088-1.413zm1.482 1.005c.477.476.831.986 1.076 1.529l1.823-.824a7.2 7.2 0 0 0-1.484-2.12zm1.076 1.529q.388.853.564 1.952l1.975-.312a9.6 9.6 0 0 0-.716-2.464zm.563 1.948q.143.937.479 1.763l1.851-.758a5.8 5.8 0 0 1-.353-1.31zm.479 1.763q.296.721.623 1.443l1.82-.828a39 39 0 0 1-.592-1.373zm.64 1.476q.335.671.608 1.34l1.851-.758a22 22 0 0 0-.671-1.476zm.623 1.375q.282.62.452 1.3l1.94-.484a9.6 9.6 0 0 0-.571-1.644zm.445 1.27c.064.291.04.565-.076.85l1.851.757c.268-.655.33-1.341.18-2.031zm-.085.872c-.024.062-.057.151-.342.206l.377 1.964c.824-.158 1.516-.624 1.834-1.458zm-.35.207a.7.7 0 0 1-.395-.025l-.673 1.884c.475.17.968.201 1.46.103zm-.312.009a2 2 0 0 1-.515-.344l-1.345 1.48q.461.421 1.021.68zm-.48-.311a6 6 0 0 1-.547-.629l-1.6 1.2q.332.443.732.843zm-.496-.553q-.259-.421-.488-.78l-1.687 1.073q.219.345.472.755zm-2.125-.852c-.432.563-.88.977-1.34 1.266l1.066 1.692c.693-.436 1.311-1.024 1.861-1.742zm-1.316 1.252c-.437.259-.995.448-1.701.54l.261 1.983c.916-.12 1.744-.379 2.46-.803zm-1.694.54a9 9 0 0 1-1.76.058l-.137 1.996q1.035.07 2.145-.07zm-1.76.058a9.3 9.3 0 0 1-1.79-.319l-.526 1.93a11.3 11.3 0 0 0 2.179.385zm-1.805-.323c-.773-.198-1.37-.527-1.825-.967l-1.389 1.44c.74.712 1.657 1.193 2.719 1.465zm-1.8-.941a5.6 5.6 0 0 1-1.14-1.739l-1.847.77a7.6 7.6 0 0 0 1.548 2.357zm-1.128-1.708a6.6 6.6 0 0 1-.416-2.198l-2 .048a8.6 8.6 0 0 0 .545 2.858zm-.416-2.198q-.029-1.2.286-2.373l-1.931-.518a10.3 10.3 0 0 0-.354 2.939zm.288-2.381c.272-1.047.665-1.844 1.148-2.431l-1.543-1.272c-.712.864-1.215 1.944-1.54 3.201zm1.148-2.431a5.2 5.2 0 0 1 1.746-1.4l-.875-1.8a7.2 7.2 0 0 0-2.414 1.928zm1.401.737a4.3 4.3 0 0 0-.918 1.375l1.843.776q.184-.434.49-.737zm-.918 1.375a5.3 5.3 0 0 0-.394 1.573l1.991.19a3.3 3.3 0 0 1 .246-.987zm-.397 1.62a5.8 5.8 0 0 0 .154 1.624l1.945-.464a3.8 3.8 0 0 1-.102-1.064zm.154 1.624c.132.554.349 1.065.66 1.518l1.648-1.133a2.5 2.5 0 0 1-.363-.849zm.67 1.533c.364.51.915.86 1.518 1.11l.77-1.846c-.422-.176-.597-.338-.66-.426zm1.551 1.123a6.8 6.8 0 0 0 1.875.413l.153-1.994a4.8 4.8 0 0 1-1.325-.291zm1.885.414c.877.058 1.686-.181 2.364-.736L74.47 18.97c-.26.213-.561.315-.964.288zm2.347-.723a4.45 4.45 0 0 0 1.398-1.85l-1.853-.754a2.45 2.45 0 0 1-.778 1.03zm1.39-1.833c.315-.734.459-1.51.433-2.314l-1.999.064a3.4 3.4 0 0 1-.272 1.462zm.433-2.313a4.7 4.7 0 0 0-.692-2.35l-1.703 1.05a2.7 2.7 0 0 1 .396 1.362zm-.698-2.359c-.358-.567-.849-1-1.46-1.274l-.82 1.824c.243.11.435.274.589.518zm-1.441-1.266a4 4 0 0 0-1.74-.384v2c.328 0 .618.066.883.192zm-1.695-.383c-.61-.028-1.21.07-1.795.283l.683 1.88c.354-.129.692-.18 1.021-.165zm-1.77.274a3.8 3.8 0 0 0-1.51.914l1.414 1.414c.176-.176.41-.324.729-.43zm24.963-.971.868-.496-.017-.03-.02-.029zm.256.96h-1v.031l.002.031zm-.224.96-.868-.496-.014.024-.013.025zm-.832.8.35.936.016-.005.015-.006zm-1.152.032.242-.97-.013-.003-.012-.003zm-.992-.544-.651.76.057.048.064.04zm-.544-.352-.486.874.02.01.019.01zm-.768-.224.132-.991zm-1.056 0-.11-.994h-.007zm-.992.256-.394-.92-.027.012-.026.014zm-1.12 1.088.86.509.006-.009.004-.008zm-.544 1.536.987.158.001-.006zm.032 1.632-.982.189.003.018.004.018zm.704 1.408.759-.65-.006-.008-.006-.006zm.992.736-.428.904.008.004.01.004zm1.216.352.117-.993h-.007zm1.088 0 .117.993.028-.003.029-.005zm1.056-.256.298.954.044-.013.042-.018zm.864-.416.47.882.023-.012.021-.012zm.928-.352v-1h-.071l-.07.01zm.896.32-.707.707.018.019.02.017zm.448.736-.962.275.003.01.003.01zm.032.896-.98-.196-.007.032-.004.032zm-.352.832-.774-.633-.007.008zm-1.088.928.508.86.015-.008.014-.008zm-1.344.608-.288-.958-.014.005-.014.004zm-1.728.288-.034-1zm-1.76-.064-.165.986.025.005.025.002zm-.8-.16-.225.974zm-.8-.224-.342.94.013.004.013.005zm-2.368-1.44-.72.695.013.012.012.012zm-1.44-2.144-.927.376.004.01.005.01zm-.224-5.184.96.28.002-.008zm.864-2.112-.846-.533-.008.012-.007.011zm1.248-1.408.611.791.005-.003zm1.632-.896.336.942.015-.005.014-.006zm1.984-.608-.196-.98-.017.003-.016.004zm4.608.832-.523.853.023.014.023.012zm.411 1.68a.9.9 0 0 1 .125.464h2c0-.517-.132-1.008-.388-1.456zm.127.526a.7.7 0 0 1-.094.402l1.736.992c.267-.467.387-.981.354-1.518zm-.12.45c-.096.19-.201.275-.319.323l.762 1.85c.607-.25 1.056-.7 1.345-1.278zm-.29.312c-.115.043-.287.066-.558-.002l-.485 1.94c.582.146 1.178.147 1.746-.066zm-.583-.008a.4.4 0 0 1-.148-.062l-1.162 1.628c.266.19.562.316.876.386zm-.148-.062q-.252-.18-.531-.354l-1.06 1.696q.232.145.428.286zm-.41-.265a3.7 3.7 0 0 0-.748-.487l-.894 1.788c.155.078.264.152.34.217zm-.71-.467c-.34-.19-.73-.29-1.121-.341l-.264 1.982c.248.033.37.083.414.107zm-1.121-.341a5.4 5.4 0 0 0-1.299-.003l.221 1.988a3.4 3.4 0 0 1 .814-.003zm-1.305-.002a4.6 4.6 0 0 0-1.27.33l.789 1.838q.298-.13.715-.182zm-1.323.355c-.66.33-1.175.84-1.543 1.49l1.741.984c.187-.33.419-.547.697-.686zm-1.533 1.473a5.3 5.3 0 0 0-.672 1.893l1.977.304c.067-.433.206-.823.417-1.18zm-.67 1.887a5.7 5.7 0 0 0 .037 1.979l1.964-.378a3.7 3.7 0 0 1-.027-1.285zm.044 2.015c.162.7.467 1.325.931 1.847l1.495-1.328a2.14 2.14 0 0 1-.477-.969zm.92 1.834c.359.42.808.745 1.323.989l.856-1.808a1.95 1.95 0 0 1-.661-.483zm1.34.997c.503.226 1.01.378 1.516.434l.221-1.988a3.1 3.1 0 0 1-.916-.27zm1.51.433q.66.078 1.322 0l-.234-1.986q-.428.05-.854 0zm1.379-.008a9.5 9.5 0 0 0 1.18-.287l-.596-1.908q-.45.14-.932.225zm1.266-.318q.44-.183.95-.457l-.94-1.764q-.45.24-.779.375zm.994-.481c.232-.14.416-.2.555-.22l-.283-1.98c-.458.066-.893.24-1.3.485zm.414-.21c.1 0 .154.014.175.022l.015.006h-.001l1.414-1.415c-.449-.449-1.03-.613-1.603-.613zm.227.063a.54.54 0 0 1 .155.268l1.923-.55a2.53 2.53 0 0 0-.74-1.204zm.161.287c.03.1.043.228.007.406l1.961.392a2.8 2.8 0 0 0-.056-1.386zm-.004.47a.63.63 0 0 1-.134.33l1.548 1.267c.317-.387.503-.841.569-1.333zm-.141.34c-.168.209-.437.45-.844.708l1.074 1.688c.53-.338.987-.717 1.332-1.147zm-.816.691c-.415.245-.788.41-1.123.511l.575 1.916a7 7 0 0 0 1.566-.705zm-1.151.52a5.1 5.1 0 0 1-1.446.238l.067 1.998a7 7 0 0 0 2.011-.338zm-1.447.238q-.86.03-1.61-.058l-.23 1.986q.915.105 1.91.07zm-1.56-.051a12 12 0 0 1-.74-.148l-.45 1.948q.443.103.86.172zm-.74-.148a8 8 0 0 1-.709-.199l-.633 1.898q.432.144.892.25zm-.683-.19c-.823-.299-1.488-.71-2.015-1.219l-1.39 1.438c.752.727 1.666 1.277 2.721 1.66zm-1.991-1.195a6.2 6.2 0 0 1-1.241-1.846l-1.836.794a8.2 8.2 0 0 0 1.639 2.442zm-1.233-1.825a6.7 6.7 0 0 1-.471-2.2l-1.998.096a8.6 8.6 0 0 0 .616 2.856zm-.471-2.2a7 7 0 0 1 .28-2.327l-1.919-.562a9 9 0 0 0-.36 2.985zm.283-2.336c.218-.772.476-1.39.762-1.874l-1.72-1.02c-.397.669-.715 1.458-.967 2.35zm.748-1.851a4.4 4.4 0 0 1 1.013-1.15l-1.223-1.582a6.4 6.4 0 0 0-1.483 1.666zm1.018-1.153a4.8 4.8 0 0 1 1.352-.742l-.673-1.884a6.8 6.8 0 0 0-1.912 1.05zm1.381-.753a13.5 13.5 0 0 1 1.848-.566l-.458-1.946q-1.149.27-2.12.65zm1.815-.558a5.3 5.3 0 0 1 1.995.003l.353-1.968a7.3 7.3 0 0 0-2.74.003zm1.995.003c.72.13 1.348.366 1.894.7l1.045-1.705a7.4 7.4 0 0 0-2.586-.963zm1.94.727c.361.196.668.475.925.86l1.664-1.11a4.6 4.6 0 0 0-1.636-1.508zm17.329-1.487.922-.388-.004-.01-.004-.008zm.032 1.344-.956-.291-.006.02-.005.019zm-.736.96-.38-.925-.013.006-.013.005zm-.768.224.132.991.033-.004.031-.006zm-1.056.128-.11-.994h-.007zm-1.088.096-.058-.998zm-.928.032v-1h-1.034l.035 1.033zm.064 1.984-.999.031v.001zm.064 1.952 1-.033zm0 3.424-.999-.045-.001.022v.023zm-.096 2.304-.986-.164-.005.026-.003.028zm-.224 1.024.934.359.004-.011.004-.012zm-.48.544-.371-.928-.008.003-.007.003zm-1.824.224.225-.974-.014-.004-.015-.003zm-1.152-.672-.851.524.013.022.014.02zm-.384-.96-.976.217.003.012zm-.192-1.152-.998.053.001.029.003.028zm-.032-1.152-.998-.055-.002.027v.028zm.032-.992-.999-.024-.001.012v.012zm.032-3.04-1-.018v.018zm.032-3.456h1v-1h-1zm-1.472 0-.055.999.027.001h.028zm-1.184-.096-.164.986.03.005.03.003zm-1.088-.224-.298.954.028.01.028.006zm-.736-.448.79-.614-.013-.016-.013-.016zm-.448-.896-.991.132.004.032.007.032zm.064-.896-.941-.336-.008.02-.007.022zm.48-.768.707.707.017-.017.016-.017zm.736-.448.225.974.022-.005.021-.005zm1.632-.16v1h.031zm1.984 0-.034 1 1.143.039-.114-1.139zm-.064-1.216-.996.083.001.014.001.013zm.032-2.144-.988-.156-.003.023-.003.023zm.288-1.12.937.351.003-.009.003-.01zm.544-.832-.624-.78-.009.006zm.96-.416.067.998.029-.002.028-.004zm.928.128-.419.908.013.006.012.005zm.736.576-.8.6.029.038.031.035zm.448.8.97-.243-.004-.016-.004-.016zm.16.928-.993.117.001.007zm.064 1.088h-1v.028l.002.027zm.032 2.208h-1v1h1zm1.44-.032-.05-.999zm1.248.032-.104.995h.005zm1.152.32-.447.894.023.012.023.01zm-.153 1.188c.065.155.09.359-.003.665l1.913.582c.205-.675.209-1.367-.067-2.023zm-.014.704a.7.7 0 0 1-.106.252.1.1 0 0 1-.043.035l.761 1.85c.735-.303 1.141-.936 1.323-1.633zm-.175.298c-.098.044-.275.1-.558.157l.392 1.962c.358-.072.693-.164.978-.291zm-.494.147q-.467.062-1.034.125l.221 1.988q.585-.065 1.077-.13zm-1.041.126q-.514.06-1.029.09l.117 1.997q.573-.034 1.146-.1zm-1.029.09q-.526.031-.87.031v2q.424 0 .987-.034zm-1.869 1.064.064 1.982 1.999-.062-.064-1.986zm.064 1.983q.031.993.064 1.953l1.999-.066q-.033-.96-.064-1.951zm.064 1.953a55 55 0 0 1 .031 1.823h2q0-.914-.032-1.89zm.031 1.823q0 .846-.031 1.523l1.998.09a36 36 0 0 0 .033-1.613zm-.032 1.568v1.12h2v-1.12zm0 1.12q0 .528-.082 1.02l1.973.328q.11-.66.109-1.348zm-.09 1.074a3.6 3.6 0 0 1-.171.798l1.883.672c.138-.385.227-.805.276-1.25zm-.163.775c-.02.052-.031.058-.017.041a.3.3 0 0 1 .099-.067l.743 1.857c.542-.216.866-.656 1.042-1.113zm.067-.02c-.519.218-.91.242-1.213.173l-.45 1.948c.807.186 1.632.061 2.436-.276zm-1.242.166c-.36-.072-.478-.191-.524-.257l-1.648 1.133c.424.616 1.074.944 1.78 1.086zm-.496-.215a2.2 2.2 0 0 1-.262-.665l-1.947.458c.106.452.271.874.506 1.255zm-.26-.653q-.115-.525-.174-1.045l-1.988.22q.07.63.21 1.259zm-.169-.988q-.031-.585-.031-1.099h-2q0 .573.034 1.205zm-.032-1.044q.033-.594.033-1.047h-2q0 .38-.03.937zm.033-1.023q.033-1.359.032-3.064h-2q0 1.687-.031 3.016zm.032-3.046q.032-1.737.032-3.474h-2q0 1.719-.032 3.438zm-.968-4.474h-.48v2h.48zm-.48 0zh-.991v2h.992zm-.936.002a23 23 0 0 1-1.135-.092l-.209 1.988q.63.067 1.233.1zm-1.075-.084q-.541-.09-1.01-.208l-.485 1.94q.554.14 1.166.24zm-.954-.192a1 1 0 0 1-.219-.092c-.037-.023-.038-.031-.026-.016l-1.58 1.228c.322.412.779.648 1.228.788zm-.271-.14a1 1 0 0 1-.231-.446l-1.961.392c.1.504.334.954.665 1.346zm-.22-.382a1.1 1.1 0 0 1 .028-.47l-1.912-.588a3.1 3.1 0 0 0-.099 1.322zm.014-.428c.06-.166.142-.294.245-.397L98.68 8.67c-.323.323-.56.708-.715 1.139zm.278-.431a.43.43 0 0 1 .221-.147l-.45-1.948a2.4 2.4 0 0 0-1.25.75zm.264-.157c.255-.071.693-.124 1.364-.124v-2c-.736 0-1.386.054-1.9.196zm1.395-.124q1.027-.032 1.919 0l.069-2a32 32 0 0 0-2.049 0zm2.948-1.1a5 5 0 0 1-.027-.508h-2q0 .344.037.707zm-.027-.508q0-.37-.038-.718l-1.988.22q.026.228.026.498zm-.035-.691a11 11 0 0 1-.029-.877h-2q0 .602.036 1.043zm-.029-.877q0-.555.058-1.074l-1.988-.22q-.07.633-.07 1.294zm.052-1.028a4.7 4.7 0 0 1 .237-.925l-1.873-.702a7 7 0 0 0-.34 1.315zm.243-.943c.083-.236.175-.342.234-.391l-1.266-1.548c-.41.335-.681.784-.854 1.273zm.226-.384c.205-.164.336-.195.402-.2l-.133-1.995c-.574.038-1.083.285-1.518.633zm.459-.205a.7.7 0 0 1 .385.044l.838-1.816a2.67 2.67 0 0 0-1.471-.212zm.41.055c.141.06.245.143.33.257l1.6-1.2a2.8 2.8 0 0 0-1.142-.895zm.39.33a1 1 0 0 1 .227.402l1.923-.55a3 3 0 0 0-.67-1.198zm.218.37q.077.301.137.802l1.986-.234a8 8 0 0 0-.183-1.054zm.138.809q.056.444.056.964h2q0-.63-.071-1.212zm.058 1.02q.03.547.03 1.096h2q0-.604-.033-1.207zm.03 1.096v1.056h2V7.712zm1 2.056h.32v-2h-.32zm.32 0q.512 0 1.17-.033l-.1-1.998q-.622.031-1.07.031zm1.17-.033a7 7 0 0 1 1.094.028l.209-1.99a9 9 0 0 0-1.403-.036zm1.099.028c.32.032.584.11.804.22l.894-1.79a4.3 4.3 0 0 0-1.499-.42zm.85.241c.083.037.172.103.255.29l1.828-.812c-.258-.58-.681-1.048-1.281-1.31zm10.185 8.364.581-.814-.023-.016-.025-.015zm-1.376-.608-.292.957.012.003zm-1.536-.416-.243.97.009.002zm-1.504-.416-.329.944.019.007.018.006zm-1.344-.704-.604.798.01.007zm-1.536-2.432-.992.13.001.011.002.013zm.64-2.944-.864-.504-.007.012zm1.184-1.248.546.838.012-.009.013-.008zm1.6-.768.284.959.011-.003.011-.004zm1.824-.32-.035-1zm1.76.096.173-.985-.011-.002-.01-.001zm1.152.288-.302.954.024.007.023.006zm1.12.448-.491.872.011.006.012.006zm.96.736-.733.68.025.028.027.025zm.64 1.056-.958.287.002.007zm.032.8-.971-.242-.009.038-.007.04zm-.32.64-.708-.707-.023.023-.022.026zm-.608.384-.317-.949-.013.005-.012.004zm-.768.064-.197.98.022.005.022.003zm-.896-.288.419-.908zm-.832-.416.474-.88zm-.864-.384-.359.933.011.005.011.004zm-.896-.16-.044 1h.044zm-1.216.256-.515-.857zm-.672.704-.908-.42-.014.03-.012.031zm.032.896-.929.371.01.027.012.025zm.896.832.465-.885h-.001zm1.344.512-.253.968zm1.44.384-.264.965.011.003zm1.408.448-.356.934.007.003.007.003zm1.248.704-.636.772.002.002zm1.28 2.016-.982.19.002.014.003.013zm-.128 2.272.945.324zm-1.344 1.984-.669-.743-.007.005-.006.006zm-2.208 1.152.202.98.009-.003.008-.001zm-4.128-.032-.214.977.006.001zm-1.984-.704-.46.888.012.006zm-1.568-1.216.754-.656-.002-.002zm-.48-1.152h-1v.025l.001.025zm.256-1.152-.872-.49-.006.01-.005.01zm.8-.704.351.936zm1.152.224.566-.824-.011-.007-.011-.007zm1.215.704-.447.894.017.009.017.007zm1.409.512-.264.965zm2.496-.096.514.857.011-.006.011-.007zm.736-1.024.998.056v-.003zm.117-1.773a6.4 6.4 0 0 0-1.629-.723l-.56 1.92c.432.126.803.293 1.122.494zm-1.618-.72q-.767-.233-1.594-.431l-.467 1.944a26 26 0 0 1 1.478.4zm-1.585-.43a30 30 0 0 1-1.455-.402l-.583 1.914q.761.23 1.553.43zm-1.418-.39a4 4 0 0 1-1.079-.564l-1.187 1.61a6 6 0 0 0 1.609.843zm-1.069-.557c-.697-.526-1.047-1.118-1.151-1.788l-1.977.308c.195 1.25.869 2.28 1.921 3.076zm-1.148-1.763c-.096-.738.055-1.503.519-2.323l-1.741-.984c-.646 1.142-.921 2.34-.761 3.565zm.512-2.311c.221-.38.508-.68.867-.914l-1.093-1.676a4.7 4.7 0 0 0-1.501 1.582zm.892-.931q.602-.42 1.313-.63l-.569-1.918q-1.017.301-1.887.906zm1.335-.637a5.7 5.7 0 0 1 1.552-.273l-.069-1.998a7.7 7.7 0 0 0-2.096.367zm1.552-.273q.844-.028 1.573.085l.305-1.976a10.4 10.4 0 0 0-1.947-.107zm1.552.082q.47.082 1.024.257l.603-1.908a10 10 0 0 0-1.28-.319zm1.071.27q.492.13.884.353l.981-1.744a5.7 5.7 0 0 0-1.356-.543zm.907.365q.395.209.695.533l1.465-1.361a4.6 4.6 0 0 0-1.225-.94zm.747.585c.156.145.281.338.363.61l1.915-.574a3.3 3.3 0 0 0-.917-1.502zm.365.617a.47.47 0 0 1 .017.264l1.941.484c.112-.45.087-.902-.047-1.336zm.001.342c-.011.066-.029.085-.041.097l1.415 1.414c.329-.33.525-.737.599-1.183zm-.086.146c-.012.013-.052.054-.172.093l.633 1.898c.392-.131.757-.347 1.044-.675zm-.197.102a.54.54 0 0 1-.274.016l-.305 1.976c.423.065.851.037 1.262-.112zm-.23.023a3 3 0 0 1-.673-.215l-.839 1.816q.532.244 1.119.36zm-.673-.215q-.388-.18-.777-.388l-.949 1.76q.443.24.887.444zm-.777-.388a7 7 0 0 0-1.002-.446l-.673 1.884q.378.135.726.322zm-.98-.437a3.5 3.5 0 0 0-1.254-.227v2c.206 0 .382.034.537.093zm-1.211-.226c-.626-.027-1.24.077-1.774.398l1.029 1.714c.106-.063.302-.13.658-.114zm-1.774.398c-.454.272-.836.645-1.065 1.142l1.815.838c.027-.058.093-.154.279-.265zm-1.091 1.202c-.211.55-.169 1.112.037 1.626l1.857-.742c-.05-.126-.029-.161-.027-.166zm.059 1.678c.275.588.778 1.001 1.338 1.295l.929-1.772c-.336-.175-.43-.317-.454-.369zm1.337 1.294q.72.378 1.557.595l.505-1.936q-.635-.167-1.131-.429zm1.557.595q.731.19 1.429.38l.527-1.929a137 137 0 0 0-1.451-.387zm1.44.384q.686.179 1.305.415l.711-1.87a15 15 0 0 0-1.511-.48zm1.319.42c.369.134.684.314.954.536l1.271-1.544a5.2 5.2 0 0 0-1.542-.872zm.956.538c.555.453.834.93.932 1.433l1.963-.382c-.201-1.033-.775-1.9-1.628-2.599zm.937 1.459a3.1 3.1 0 0 1-.097 1.73l1.891.65c.316-.92.369-1.866.159-2.814zm-.097 1.73c-.196.572-.542 1.093-1.067 1.566l1.337 1.486c.755-.679 1.305-1.48 1.621-2.403zm-1.08 1.577a3.7 3.7 0 0 1-1.746.908l.439 1.952a5.7 5.7 0 0 0 2.67-1.396zm-1.729.905a9 9 0 0 1-1.813.171v2q1.176 0 2.218-.213zm-1.813.171a9 9 0 0 1-1.905-.202l-.415 1.956q1.156.246 2.32.246zm-1.899-.2a7.5 7.5 0 0 1-1.75-.622l-.895 1.788a9.5 9.5 0 0 0 2.218.787zm-1.738-.616a4.2 4.2 0 0 1-1.273-.984l-1.509 1.312a6.2 6.2 0 0 0 1.863 1.448zm-1.275-.986a.86.86 0 0 1-.234-.544l-1.997.1c.033.666.289 1.261.726 1.76zm-.232-.494c0-.322.061-.537.138-.681l-1.765-.942c-.264.495-.373 1.049-.373 1.623zm.127-.662a.52.52 0 0 1 .28-.258l-.703-1.872a2.5 2.5 0 0 0-1.32 1.15zm.28-.258c-.015.006-.023 0 .002.006a.8.8 0 0 1 .254.12l1.089-1.676c-.58-.378-1.302-.602-2.048-.322zm.234.112q.584.4 1.335.774l.895-1.788a9 9 0 0 1-1.097-.634zm1.369.79q.772.352 1.558.567l.527-1.93a8.4 8.4 0 0 1-1.258-.457zm1.558.567a6.1 6.1 0 0 0 1.608.227v-2c-.327 0-.686-.049-1.081-.157zm1.608.227c.592 0 1.162-.128 1.666-.43l-1.029-1.716c-.136.082-.334.146-.637.146zm1.688-.444c.613-.39 1.152-.98 1.198-1.812l-1.997-.111c.001-.016.009-.015-.014.015a.9.9 0 0 1-.26.22zm1.198-1.815c.037-.704-.223-1.36-.833-1.795l-1.163 1.628q.015.012.009.006l-.012-.019q-.004-.011 0 .003.003.015.002.071z" mask="url(#a)"/></svg>