<svg xmlns="http://www.w3.org/2000/svg" width="36" height="38" fill="none"><g clip-path="url(#a)"><path fill="#FFCB4C" stroke="#AB6400" d="m25.308 12.826-.032.01-12.916 1.362q-.122-.067-.324-.175a19 19 0 0 0-1.146-.558c-.889-.396-2.07-.834-3.02-.834a7.37 7.37 0 0 0-7.334 8.106C.926 30.057 8.584 37.5 18 37.5c9.665 0 17.5-7.835 17.5-17.5 0-.053-.005-.1-.008-.128l-.003-.033.003-.043.002-.028q.005-.062.006-.149a7.37 7.37 0 0 0-7.369-7.369c-.559 0-1.301.16-1.867.305a19 19 0 0 0-.956.271Z"/><path fill="#CCD6DD" stroke="#A4AAAF" d="M31.125 4.225c-.18 0-.35.02-.51.051a4.21 4.21 0 0 0-3.136-1.336 4.47 4.47 0 0 0-3.18-1.335 4.46 4.46 0 0 0-3.472 1.66 2.74 2.74 0 0 0-2.078-.951c-.6 0-1.147.194-1.594.518A4.22 4.22 0 0 0 13.458.647a4.24 4.24 0 0 0-3.38 1.685 3 3 0 0 0-.328-.02c-1.5 0-2.8.784-3.552 1.949a3.875 3.875 0 1 0-.365 7.73 3.8 3.8 0 0 0 1.58-.348 2.7 2.7 0 0 0 1.557.373 5.32 5.32 0 0 0 4.353 2.266 5.34 5.34 0 0 0 4.12-1.939 4.37 4.37 0 0 0 2.982 1.179 4.41 4.41 0 0 0 4.141-2.91q.216-.012.425-.045a4.2 4.2 0 0 0 2.552.871 4.2 4.2 0 0 0 3.073-1.338c.16.031.33.051.51.051a2.963 2.963 0 1 0-.001-5.926Z"/><path fill="#F36C24" stroke="#A4AAAF" d="m6.147 9.617-.709-.711v1.711h.293a19.7 19.7 0 0 1 3.13 4.262 20 20 0 0 1 1.159 2.474l.118.312.332.01c.696.024 1.129-.164 1.521-.335l.07-.03c.379-.164.79-.33 1.57-.35.434-.012.782.13 1.145.356.159.098.31.206.477.325l.094.066c.197.14.415.29.653.42.96.526 1.793.268 2.447-.043.153-.073.302-.152.44-.224l.02-.011c.145-.077.278-.147.408-.207.263-.122.466-.183.644-.183.11 0 .28.043.533.145.151.062.293.126.448.197.113.052.233.106.368.165.292.127.622.255.956.316.338.062.717.063 1.081-.105.668-.31 1.093-.603 1.416-.826l.097-.066c.327-.224.514-.33.805-.37l.286-.04.11-.267c.314-.775.725-1.661 1.224-2.554.725-1.297 1.631-2.585 2.736-3.562l.99-.875H6.148Z"/><path fill="#FFCB4C" d="M35 19.619a6.87 6.87 0 0 0-6.869-6.869c-.979 0-2.752.578-2.752.578l-13.126 1.384s-2.717-1.581-4.383-1.581a6.87 6.87 0 0 0-6.835 7.571C1.406 29.763 8.849 37 18 37c9.389 0 17-7.611 17-17 0-.052-.009-.101-.012-.153.003-.076.012-.151.012-.228"/><path fill="#F19020" d="M30.126 14.751c-.941-.244-1.009.386-2.202.246-1.168-.137.429-.739-.195-1.092-.21-.119-.511-.144-.882-.098-1.052.129-16.954.544-17.547.83-.527.254-.839.548-1.318.101-.603-.562-1.466-.238-1.716-.051-.322.242-.389.722.234 1.277.621.42 1.673.859 3.465 1.159.197.033.365.046.522.052 1.227.041 1.397-1.67 3.13-1.716 1.136-.03 11.153 1.07 11.978.958a2 2 0 0 1 .329-.024c1.563 0 1.926 1.45 3.589.316.705-.573 1.811-1.648.613-1.958"/><path fill="#F36C24" d="M5.938 10.115c1.523 1.527 2.604 3.145 3.362 4.523a20.5 20.5 0 0 1 1.187 2.538c1.227.041 1.397-.67 3.13-.716 1.136-.03 1.783.769 2.623 1.229 1.502.822 2.569-.73 3.719-.73.85 0 2.219 1.207 3.176.764 1.387-.643 1.635-1.191 2.46-1.304.322-.791.741-1.696 1.252-2.609.74-1.324 1.678-2.665 2.841-3.693H5.938z"/><path fill="#CE5C1F" d="M29.306 10.435c1.281-1.263-23.039.016-22.341.788.988 1.094 2.2 3.153 2.2 3.153s4.757 2.405 8.351-.626c2.5 1.5 6 .969 7.562-1.609 0 0 1.217.453 2.451.531 0 0 .953-1.425 1.777-2.237"/><path fill="#65471B" d="M18 34.588c2.392 0 4.332-2.216 4.332-4.95s-1.94-4.95-4.332-4.95-4.332 2.216-4.332 4.95 1.94 4.95 4.332 4.95M14 21.606c0 1.473-.896 2.667-2 2.667s-2-1.194-2-2.667.895-2.667 2-2.667 2 1.194 2 2.667m12-.001c0 1.473-.895 2.667-2 2.667s-2-1.194-2-2.667.896-2.667 2-2.667c1.105.001 2 1.195 2 2.667"/><path fill="#CCD6DD" d="M31.125 4.725c-.24 0-.467.045-.686.109a3.73 3.73 0 0 0-2.898-1.396c-.087 0-.169.02-.255.026a3.98 3.98 0 0 0-2.987-1.359c-1.505 0-2.8.839-3.486 2.066a2.236 2.236 0 0 0-3.825-.492 3.74 3.74 0 0 0-3.53-2.532c-1.323 0-2.48.689-3.148 1.723a3.6 3.6 0 0 0-.56-.058c-1.432 0-2.661.812-3.293 1.992a3.4 3.4 0 0 0-.624-.063 3.375 3.375 0 1 0 0 6.75 3.3 3.3 0 0 0 1.614-.425c.376.282.838.456 1.345.456q.217-.001.422-.043a4.83 4.83 0 0 0 4.109 2.303 4.85 4.85 0 0 0 4.073-2.217 3.9 3.9 0 0 0 3.029 1.457 3.914 3.914 0 0 0 3.776-2.911c.034.001.065.01.099.01q.425-.002.826-.087a3.72 3.72 0 0 0 2.417.904c1.174 0 2.21-.551 2.897-1.396.219.064.446.109.686.109a2.463 2.463 0 1 0-.001-4.926"/><path fill="#CCD6DD" d="M31.125 4.725c-.24 0-.467.045-.686.109a3.73 3.73 0 0 0-2.898-1.396c-.087 0-.169.02-.255.026a3.98 3.98 0 0 0-2.987-1.359c-1.505 0-2.8.839-3.486 2.066a2.236 2.236 0 0 0-3.825-.492 3.74 3.74 0 0 0-3.53-2.532c-1.323 0-2.48.689-3.148 1.723a3.6 3.6 0 0 0-.56-.058c-1.432 0-2.661.812-3.293 1.992a3.4 3.4 0 0 0-.624-.063 3.375 3.375 0 1 0 0 6.75 3.3 3.3 0 0 0 1.614-.425c.376.282.838.456 1.345.456q.217-.001.422-.043a4.83 4.83 0 0 0 4.109 2.303 4.85 4.85 0 0 0 4.073-2.217 3.9 3.9 0 0 0 3.029 1.457 3.914 3.914 0 0 0 3.776-2.911c.034.001.065.01.099.01q.425-.002.826-.087a3.72 3.72 0 0 0 2.417.904c1.174 0 2.21-.551 2.897-1.396.219.064.446.109.686.109a2.463 2.463 0 1 0-.001-4.926"/><path fill="#E1E8ED" d="M27.795 8.888a2.121 2.121 0 1 0 0-4.242 2.121 2.121 0 0 0 0 4.242M19.876 6.903a2.16 2.16 0 0 0-2.16-2.161c-.368 0-.71.101-1.013.263a1.665 1.665 0 0 0-2.905-.306 3.73 3.73 0 0 0-2.548-1.013 3.74 3.74 0 0 0-3.625 2.838 2.012 2.012 0 1 0-1.429 3.429c.703 0 1.319-.361 1.679-.907a3.74 3.74 0 0 0 2.749 2.079 2.24 2.24 0 0 0 4.131-.635c.324.18.691.292 1.087.292 1.07 0 1.962-.749 2.19-1.75a2.155 2.155 0 0 0 1.844-2.129"/></g><defs><clipPath id="a"><path fill="#fff" d="M0 0h36v38H0z"/></clipPath></defs></svg>